%
M48
M72
T01C0.0320
T02C0.0400
T03C0.0520
T04C0.0600
T05C0.0900
T06C0.1300
T07C0.1500
%
T01
X5180Y5180
X5180Y6680
X4680Y8180
X4680Y9180
X5680Y11680
X6680Y11680
X7680Y9180
X7680Y8180
X8680Y9180
X9680Y8180
X8180Y6680
X9680Y6180
X9680Y5180
X8180Y5180
X10930Y3680
X11680Y3180
X11680Y4180
X13180Y3680
X13180Y2680
X14180Y1680
X11180Y1680
X13680Y6180
X12680Y8180
X11680Y9180
X11180Y10680
X10180Y10680
X9180Y10680
X12180Y10680
X13180Y10680
X14180Y10680
X15180Y10680
X16180Y10680
X17680Y9680
X16180Y9180
X15180Y9180
X13680Y9180
X17680Y12680
X16180Y13680
X15180Y13680
X14180Y13680
X13180Y13680
X12180Y13680
X11180Y13680
X10180Y13680
X9180Y13680
X8180Y14180
X7180Y14180
X4680Y14180
X3680Y14180
X11180Y14680
X14180Y14680
X15180Y15680
X16680Y17680
X17680Y17680
X18180Y15680
X19180Y14680
X19180Y13680
X19180Y12680
X19680Y9680
X19680Y8680
X20180Y7180
X17180Y5630
X17180Y3730
X20180Y4180
X2680Y5680
X2680Y6680
T02
X19680Y2680
T03
X8080Y2180
X6680Y3580
X5280Y2180
T04
X17180Y2180
X17180Y7180
T05
X12930Y16080
X13243Y18280
X10430Y16080
X10118Y18280
T06
X6680Y2180
T07
X1680Y1680
X1680Y10930
X1680Y18680
X21680Y18680
X21680Y10930
X21680Y1680
M30
