G75*
%MOIN*%
%OFA0B0*%
%FSLAX24Y24*%
%IPPOS*%
%LPD*%
%AMOC8*
5,1,8,0,0,1.08239X$1,22.5*
%
%ADD10C,0.0000*%
D10*
X000180Y000180D02*
X000180Y020180D01*
X023180Y020180D01*
X023180Y000180D01*
X000180Y000180D01*
X000930Y001680D02*
X000932Y001734D01*
X000938Y001788D01*
X000948Y001841D01*
X000961Y001894D01*
X000978Y001945D01*
X000999Y001995D01*
X001024Y002043D01*
X001052Y002090D01*
X001083Y002134D01*
X001117Y002176D01*
X001154Y002215D01*
X001194Y002252D01*
X001237Y002285D01*
X001282Y002316D01*
X001329Y002343D01*
X001377Y002366D01*
X001428Y002386D01*
X001479Y002403D01*
X001532Y002415D01*
X001585Y002424D01*
X001639Y002429D01*
X001694Y002430D01*
X001748Y002427D01*
X001801Y002420D01*
X001854Y002409D01*
X001907Y002395D01*
X001958Y002377D01*
X002007Y002355D01*
X002055Y002330D01*
X002101Y002301D01*
X002145Y002269D01*
X002186Y002234D01*
X002224Y002196D01*
X002260Y002155D01*
X002293Y002112D01*
X002323Y002067D01*
X002349Y002019D01*
X002372Y001970D01*
X002391Y001919D01*
X002406Y001868D01*
X002418Y001815D01*
X002426Y001761D01*
X002430Y001707D01*
X002430Y001653D01*
X002426Y001599D01*
X002418Y001545D01*
X002406Y001492D01*
X002391Y001441D01*
X002372Y001390D01*
X002349Y001341D01*
X002323Y001293D01*
X002293Y001248D01*
X002260Y001205D01*
X002224Y001164D01*
X002186Y001126D01*
X002145Y001091D01*
X002101Y001059D01*
X002055Y001030D01*
X002007Y001005D01*
X001958Y000983D01*
X001907Y000965D01*
X001854Y000951D01*
X001801Y000940D01*
X001748Y000933D01*
X001694Y000930D01*
X001639Y000931D01*
X001585Y000936D01*
X001532Y000945D01*
X001479Y000957D01*
X001428Y000974D01*
X001377Y000994D01*
X001329Y001017D01*
X001282Y001044D01*
X001237Y001075D01*
X001194Y001108D01*
X001154Y001145D01*
X001117Y001184D01*
X001083Y001226D01*
X001052Y001270D01*
X001024Y001317D01*
X000999Y001365D01*
X000978Y001415D01*
X000961Y001466D01*
X000948Y001519D01*
X000938Y001572D01*
X000932Y001626D01*
X000930Y001680D01*
X006030Y002180D02*
X006032Y002230D01*
X006038Y002280D01*
X006048Y002330D01*
X006061Y002378D01*
X006078Y002426D01*
X006099Y002472D01*
X006123Y002516D01*
X006151Y002558D01*
X006182Y002598D01*
X006216Y002635D01*
X006253Y002670D01*
X006292Y002701D01*
X006333Y002730D01*
X006377Y002755D01*
X006423Y002777D01*
X006470Y002795D01*
X006518Y002809D01*
X006567Y002820D01*
X006617Y002827D01*
X006667Y002830D01*
X006718Y002829D01*
X006768Y002824D01*
X006818Y002815D01*
X006866Y002803D01*
X006914Y002786D01*
X006960Y002766D01*
X007005Y002743D01*
X007048Y002716D01*
X007088Y002686D01*
X007126Y002653D01*
X007161Y002617D01*
X007194Y002578D01*
X007223Y002537D01*
X007249Y002494D01*
X007272Y002449D01*
X007291Y002402D01*
X007306Y002354D01*
X007318Y002305D01*
X007326Y002255D01*
X007330Y002205D01*
X007330Y002155D01*
X007326Y002105D01*
X007318Y002055D01*
X007306Y002006D01*
X007291Y001958D01*
X007272Y001911D01*
X007249Y001866D01*
X007223Y001823D01*
X007194Y001782D01*
X007161Y001743D01*
X007126Y001707D01*
X007088Y001674D01*
X007048Y001644D01*
X007005Y001617D01*
X006960Y001594D01*
X006914Y001574D01*
X006866Y001557D01*
X006818Y001545D01*
X006768Y001536D01*
X006718Y001531D01*
X006667Y001530D01*
X006617Y001533D01*
X006567Y001540D01*
X006518Y001551D01*
X006470Y001565D01*
X006423Y001583D01*
X006377Y001605D01*
X006333Y001630D01*
X006292Y001659D01*
X006253Y001690D01*
X006216Y001725D01*
X006182Y001762D01*
X006151Y001802D01*
X006123Y001844D01*
X006099Y001888D01*
X006078Y001934D01*
X006061Y001982D01*
X006048Y002030D01*
X006038Y002080D01*
X006032Y002130D01*
X006030Y002180D01*
X000930Y010930D02*
X000932Y010984D01*
X000938Y011038D01*
X000948Y011091D01*
X000961Y011144D01*
X000978Y011195D01*
X000999Y011245D01*
X001024Y011293D01*
X001052Y011340D01*
X001083Y011384D01*
X001117Y011426D01*
X001154Y011465D01*
X001194Y011502D01*
X001237Y011535D01*
X001282Y011566D01*
X001329Y011593D01*
X001377Y011616D01*
X001428Y011636D01*
X001479Y011653D01*
X001532Y011665D01*
X001585Y011674D01*
X001639Y011679D01*
X001694Y011680D01*
X001748Y011677D01*
X001801Y011670D01*
X001854Y011659D01*
X001907Y011645D01*
X001958Y011627D01*
X002007Y011605D01*
X002055Y011580D01*
X002101Y011551D01*
X002145Y011519D01*
X002186Y011484D01*
X002224Y011446D01*
X002260Y011405D01*
X002293Y011362D01*
X002323Y011317D01*
X002349Y011269D01*
X002372Y011220D01*
X002391Y011169D01*
X002406Y011118D01*
X002418Y011065D01*
X002426Y011011D01*
X002430Y010957D01*
X002430Y010903D01*
X002426Y010849D01*
X002418Y010795D01*
X002406Y010742D01*
X002391Y010691D01*
X002372Y010640D01*
X002349Y010591D01*
X002323Y010543D01*
X002293Y010498D01*
X002260Y010455D01*
X002224Y010414D01*
X002186Y010376D01*
X002145Y010341D01*
X002101Y010309D01*
X002055Y010280D01*
X002007Y010255D01*
X001958Y010233D01*
X001907Y010215D01*
X001854Y010201D01*
X001801Y010190D01*
X001748Y010183D01*
X001694Y010180D01*
X001639Y010181D01*
X001585Y010186D01*
X001532Y010195D01*
X001479Y010207D01*
X001428Y010224D01*
X001377Y010244D01*
X001329Y010267D01*
X001282Y010294D01*
X001237Y010325D01*
X001194Y010358D01*
X001154Y010395D01*
X001117Y010434D01*
X001083Y010476D01*
X001052Y010520D01*
X001024Y010567D01*
X000999Y010615D01*
X000978Y010665D01*
X000961Y010716D01*
X000948Y010769D01*
X000938Y010822D01*
X000932Y010876D01*
X000930Y010930D01*
X000930Y018680D02*
X000932Y018734D01*
X000938Y018788D01*
X000948Y018841D01*
X000961Y018894D01*
X000978Y018945D01*
X000999Y018995D01*
X001024Y019043D01*
X001052Y019090D01*
X001083Y019134D01*
X001117Y019176D01*
X001154Y019215D01*
X001194Y019252D01*
X001237Y019285D01*
X001282Y019316D01*
X001329Y019343D01*
X001377Y019366D01*
X001428Y019386D01*
X001479Y019403D01*
X001532Y019415D01*
X001585Y019424D01*
X001639Y019429D01*
X001694Y019430D01*
X001748Y019427D01*
X001801Y019420D01*
X001854Y019409D01*
X001907Y019395D01*
X001958Y019377D01*
X002007Y019355D01*
X002055Y019330D01*
X002101Y019301D01*
X002145Y019269D01*
X002186Y019234D01*
X002224Y019196D01*
X002260Y019155D01*
X002293Y019112D01*
X002323Y019067D01*
X002349Y019019D01*
X002372Y018970D01*
X002391Y018919D01*
X002406Y018868D01*
X002418Y018815D01*
X002426Y018761D01*
X002430Y018707D01*
X002430Y018653D01*
X002426Y018599D01*
X002418Y018545D01*
X002406Y018492D01*
X002391Y018441D01*
X002372Y018390D01*
X002349Y018341D01*
X002323Y018293D01*
X002293Y018248D01*
X002260Y018205D01*
X002224Y018164D01*
X002186Y018126D01*
X002145Y018091D01*
X002101Y018059D01*
X002055Y018030D01*
X002007Y018005D01*
X001958Y017983D01*
X001907Y017965D01*
X001854Y017951D01*
X001801Y017940D01*
X001748Y017933D01*
X001694Y017930D01*
X001639Y017931D01*
X001585Y017936D01*
X001532Y017945D01*
X001479Y017957D01*
X001428Y017974D01*
X001377Y017994D01*
X001329Y018017D01*
X001282Y018044D01*
X001237Y018075D01*
X001194Y018108D01*
X001154Y018145D01*
X001117Y018184D01*
X001083Y018226D01*
X001052Y018270D01*
X001024Y018317D01*
X000999Y018365D01*
X000978Y018415D01*
X000961Y018466D01*
X000948Y018519D01*
X000938Y018572D01*
X000932Y018626D01*
X000930Y018680D01*
X020930Y018680D02*
X020932Y018734D01*
X020938Y018788D01*
X020948Y018841D01*
X020961Y018894D01*
X020978Y018945D01*
X020999Y018995D01*
X021024Y019043D01*
X021052Y019090D01*
X021083Y019134D01*
X021117Y019176D01*
X021154Y019215D01*
X021194Y019252D01*
X021237Y019285D01*
X021282Y019316D01*
X021329Y019343D01*
X021377Y019366D01*
X021428Y019386D01*
X021479Y019403D01*
X021532Y019415D01*
X021585Y019424D01*
X021639Y019429D01*
X021694Y019430D01*
X021748Y019427D01*
X021801Y019420D01*
X021854Y019409D01*
X021907Y019395D01*
X021958Y019377D01*
X022007Y019355D01*
X022055Y019330D01*
X022101Y019301D01*
X022145Y019269D01*
X022186Y019234D01*
X022224Y019196D01*
X022260Y019155D01*
X022293Y019112D01*
X022323Y019067D01*
X022349Y019019D01*
X022372Y018970D01*
X022391Y018919D01*
X022406Y018868D01*
X022418Y018815D01*
X022426Y018761D01*
X022430Y018707D01*
X022430Y018653D01*
X022426Y018599D01*
X022418Y018545D01*
X022406Y018492D01*
X022391Y018441D01*
X022372Y018390D01*
X022349Y018341D01*
X022323Y018293D01*
X022293Y018248D01*
X022260Y018205D01*
X022224Y018164D01*
X022186Y018126D01*
X022145Y018091D01*
X022101Y018059D01*
X022055Y018030D01*
X022007Y018005D01*
X021958Y017983D01*
X021907Y017965D01*
X021854Y017951D01*
X021801Y017940D01*
X021748Y017933D01*
X021694Y017930D01*
X021639Y017931D01*
X021585Y017936D01*
X021532Y017945D01*
X021479Y017957D01*
X021428Y017974D01*
X021377Y017994D01*
X021329Y018017D01*
X021282Y018044D01*
X021237Y018075D01*
X021194Y018108D01*
X021154Y018145D01*
X021117Y018184D01*
X021083Y018226D01*
X021052Y018270D01*
X021024Y018317D01*
X020999Y018365D01*
X020978Y018415D01*
X020961Y018466D01*
X020948Y018519D01*
X020938Y018572D01*
X020932Y018626D01*
X020930Y018680D01*
X020930Y010930D02*
X020932Y010984D01*
X020938Y011038D01*
X020948Y011091D01*
X020961Y011144D01*
X020978Y011195D01*
X020999Y011245D01*
X021024Y011293D01*
X021052Y011340D01*
X021083Y011384D01*
X021117Y011426D01*
X021154Y011465D01*
X021194Y011502D01*
X021237Y011535D01*
X021282Y011566D01*
X021329Y011593D01*
X021377Y011616D01*
X021428Y011636D01*
X021479Y011653D01*
X021532Y011665D01*
X021585Y011674D01*
X021639Y011679D01*
X021694Y011680D01*
X021748Y011677D01*
X021801Y011670D01*
X021854Y011659D01*
X021907Y011645D01*
X021958Y011627D01*
X022007Y011605D01*
X022055Y011580D01*
X022101Y011551D01*
X022145Y011519D01*
X022186Y011484D01*
X022224Y011446D01*
X022260Y011405D01*
X022293Y011362D01*
X022323Y011317D01*
X022349Y011269D01*
X022372Y011220D01*
X022391Y011169D01*
X022406Y011118D01*
X022418Y011065D01*
X022426Y011011D01*
X022430Y010957D01*
X022430Y010903D01*
X022426Y010849D01*
X022418Y010795D01*
X022406Y010742D01*
X022391Y010691D01*
X022372Y010640D01*
X022349Y010591D01*
X022323Y010543D01*
X022293Y010498D01*
X022260Y010455D01*
X022224Y010414D01*
X022186Y010376D01*
X022145Y010341D01*
X022101Y010309D01*
X022055Y010280D01*
X022007Y010255D01*
X021958Y010233D01*
X021907Y010215D01*
X021854Y010201D01*
X021801Y010190D01*
X021748Y010183D01*
X021694Y010180D01*
X021639Y010181D01*
X021585Y010186D01*
X021532Y010195D01*
X021479Y010207D01*
X021428Y010224D01*
X021377Y010244D01*
X021329Y010267D01*
X021282Y010294D01*
X021237Y010325D01*
X021194Y010358D01*
X021154Y010395D01*
X021117Y010434D01*
X021083Y010476D01*
X021052Y010520D01*
X021024Y010567D01*
X020999Y010615D01*
X020978Y010665D01*
X020961Y010716D01*
X020948Y010769D01*
X020938Y010822D01*
X020932Y010876D01*
X020930Y010930D01*
X020930Y001680D02*
X020932Y001734D01*
X020938Y001788D01*
X020948Y001841D01*
X020961Y001894D01*
X020978Y001945D01*
X020999Y001995D01*
X021024Y002043D01*
X021052Y002090D01*
X021083Y002134D01*
X021117Y002176D01*
X021154Y002215D01*
X021194Y002252D01*
X021237Y002285D01*
X021282Y002316D01*
X021329Y002343D01*
X021377Y002366D01*
X021428Y002386D01*
X021479Y002403D01*
X021532Y002415D01*
X021585Y002424D01*
X021639Y002429D01*
X021694Y002430D01*
X021748Y002427D01*
X021801Y002420D01*
X021854Y002409D01*
X021907Y002395D01*
X021958Y002377D01*
X022007Y002355D01*
X022055Y002330D01*
X022101Y002301D01*
X022145Y002269D01*
X022186Y002234D01*
X022224Y002196D01*
X022260Y002155D01*
X022293Y002112D01*
X022323Y002067D01*
X022349Y002019D01*
X022372Y001970D01*
X022391Y001919D01*
X022406Y001868D01*
X022418Y001815D01*
X022426Y001761D01*
X022430Y001707D01*
X022430Y001653D01*
X022426Y001599D01*
X022418Y001545D01*
X022406Y001492D01*
X022391Y001441D01*
X022372Y001390D01*
X022349Y001341D01*
X022323Y001293D01*
X022293Y001248D01*
X022260Y001205D01*
X022224Y001164D01*
X022186Y001126D01*
X022145Y001091D01*
X022101Y001059D01*
X022055Y001030D01*
X022007Y001005D01*
X021958Y000983D01*
X021907Y000965D01*
X021854Y000951D01*
X021801Y000940D01*
X021748Y000933D01*
X021694Y000930D01*
X021639Y000931D01*
X021585Y000936D01*
X021532Y000945D01*
X021479Y000957D01*
X021428Y000974D01*
X021377Y000994D01*
X021329Y001017D01*
X021282Y001044D01*
X021237Y001075D01*
X021194Y001108D01*
X021154Y001145D01*
X021117Y001184D01*
X021083Y001226D01*
X021052Y001270D01*
X021024Y001317D01*
X020999Y001365D01*
X020978Y001415D01*
X020961Y001466D01*
X020948Y001519D01*
X020938Y001572D01*
X020932Y001626D01*
X020930Y001680D01*
M02*
