G75*
%MOIN*%
%OFA0B0*%
%FSLAX24Y24*%
%IPPOS*%
%LPD*%
%AMOC8*
5,1,8,0,0,1.08239X$1,22.5*
%
%ADD10C,0.0020*%
%ADD11C,0.0030*%
%ADD12C,0.0060*%
%ADD13C,0.0120*%
%ADD14C,0.0100*%
%ADD15R,0.0200X0.1200*%
%ADD16R,0.0350X0.0300*%
%ADD17R,0.2000X0.0300*%
%ADD18R,0.0250X0.0300*%
%ADD19R,0.0150X0.0200*%
D10*
X002963Y003890D02*
X003037Y003963D01*
X003037Y004110D01*
X003111Y004000D02*
X003258Y004000D01*
X003184Y004073D02*
X003184Y003927D01*
X002963Y003890D02*
X002890Y003963D01*
X002890Y004110D01*
X003085Y004350D02*
X003158Y004350D01*
X003195Y004387D01*
X003269Y004387D02*
X003269Y004350D01*
X003269Y004387D02*
X003416Y004533D01*
X003416Y004570D01*
X003269Y004570D01*
X003195Y004533D02*
X003158Y004570D01*
X003085Y004570D01*
X003048Y004533D01*
X003048Y004387D01*
X003085Y004350D01*
X002300Y006040D02*
X002337Y006077D01*
X002337Y006150D01*
X002263Y006150D01*
X002190Y006077D02*
X002227Y006040D01*
X002300Y006040D01*
X002190Y006077D02*
X002190Y006223D01*
X002227Y006260D01*
X002300Y006260D01*
X002337Y006223D01*
X003680Y006430D02*
X006930Y006430D01*
X006930Y009930D01*
X003680Y009930D01*
X003680Y006430D01*
X005351Y008750D02*
X005424Y008750D01*
X005387Y008750D02*
X005387Y008970D01*
X005351Y008970D02*
X005424Y008970D01*
X005498Y008933D02*
X005498Y008787D01*
X005535Y008750D01*
X005608Y008750D01*
X005645Y008787D01*
X005719Y008750D02*
X005866Y008750D01*
X005792Y008750D02*
X005792Y008970D01*
X005719Y008897D01*
X005645Y008933D02*
X005608Y008970D01*
X005535Y008970D01*
X005498Y008933D01*
X005506Y010940D02*
X005469Y010977D01*
X005506Y010940D02*
X005579Y010940D01*
X005616Y010977D01*
X005616Y011013D01*
X005579Y011050D01*
X005542Y011050D01*
X005579Y011050D02*
X005616Y011087D01*
X005616Y011123D01*
X005579Y011160D01*
X005506Y011160D01*
X005469Y011123D01*
X005395Y011123D02*
X005395Y011050D01*
X005358Y011013D01*
X005248Y011013D01*
X005248Y010940D02*
X005248Y011160D01*
X005358Y011160D01*
X005395Y011123D01*
X005321Y011013D02*
X005395Y010940D01*
X003110Y011021D02*
X003037Y011095D01*
X002890Y011095D01*
X003000Y011169D02*
X003000Y011316D01*
X002927Y011242D02*
X003073Y011242D01*
X003110Y011021D02*
X003037Y010948D01*
X002890Y010948D01*
X002927Y011969D02*
X003073Y011969D01*
X003110Y012006D01*
X003110Y012079D01*
X003073Y012116D01*
X003000Y012116D01*
X003000Y012042D01*
X002927Y011969D02*
X002890Y012006D01*
X002890Y012079D01*
X002927Y012116D01*
X009248Y011160D02*
X009248Y010940D01*
X009248Y011013D02*
X009358Y011013D01*
X009395Y011050D01*
X009395Y011123D01*
X009358Y011160D01*
X009248Y011160D01*
X009321Y011013D02*
X009395Y010940D01*
X009469Y011050D02*
X009616Y011050D01*
X009579Y010940D02*
X009579Y011160D01*
X009469Y011050D01*
X010377Y012590D02*
X010340Y012627D01*
X010340Y012773D01*
X010377Y012810D01*
X010450Y012810D01*
X010487Y012773D01*
X010561Y012773D02*
X010598Y012810D01*
X010671Y012810D01*
X010708Y012773D01*
X010708Y012737D01*
X010561Y012590D01*
X010708Y012590D01*
X010487Y012627D02*
X010450Y012590D01*
X010377Y012590D01*
X013790Y011973D02*
X013790Y011827D01*
X013827Y011790D01*
X013900Y011790D01*
X013937Y011827D01*
X014011Y011827D02*
X014048Y011790D01*
X014121Y011790D01*
X014158Y011827D01*
X014158Y011900D01*
X014121Y011937D01*
X014084Y011937D01*
X014011Y011900D01*
X014011Y012010D01*
X014158Y012010D01*
X013937Y011973D02*
X013900Y012010D01*
X013827Y012010D01*
X013790Y011973D01*
X015690Y012077D02*
X015727Y012040D01*
X015800Y012040D01*
X015837Y012077D01*
X015837Y012150D01*
X015763Y012150D01*
X015690Y012223D02*
X015690Y012077D01*
X015690Y012223D02*
X015727Y012260D01*
X015800Y012260D01*
X015837Y012223D01*
X015837Y011260D02*
X015984Y011040D01*
X015984Y011260D01*
X015837Y011260D02*
X015837Y011040D01*
X015763Y011040D02*
X015690Y011040D01*
X015727Y011040D02*
X015727Y011260D01*
X015763Y011260D02*
X015690Y011260D01*
X014542Y009860D02*
X014542Y009640D01*
X014469Y009640D02*
X014616Y009640D01*
X014469Y009787D02*
X014542Y009860D01*
X014395Y009823D02*
X014395Y009750D01*
X014358Y009713D01*
X014248Y009713D01*
X014248Y009640D02*
X014248Y009860D01*
X014358Y009860D01*
X014395Y009823D01*
X014321Y009713D02*
X014395Y009640D01*
X012516Y008033D02*
X012516Y007997D01*
X012479Y007960D01*
X012516Y007923D01*
X012516Y007887D01*
X012479Y007850D01*
X012406Y007850D01*
X012369Y007887D01*
X012295Y007887D02*
X012258Y007850D01*
X012185Y007850D01*
X012148Y007887D01*
X012148Y008033D01*
X012185Y008070D01*
X012258Y008070D01*
X012295Y008033D01*
X012369Y008033D02*
X012406Y008070D01*
X012479Y008070D01*
X012516Y008033D01*
X012479Y007960D02*
X012442Y007960D01*
X013190Y007273D02*
X013190Y007127D01*
X013227Y007090D01*
X013300Y007090D01*
X013337Y007127D01*
X013411Y007090D02*
X013558Y007090D01*
X013484Y007090D02*
X013484Y007310D01*
X013411Y007237D01*
X013337Y007273D02*
X013300Y007310D01*
X013227Y007310D01*
X013190Y007273D01*
X015035Y006507D02*
X015113Y006585D01*
X015165Y006585D01*
X015217Y006533D01*
X015217Y006481D01*
X015139Y006403D01*
X015191Y006351D02*
X015035Y006507D01*
X015191Y006455D02*
X015294Y006455D01*
X015347Y006508D02*
X015347Y006715D01*
X015321Y006741D01*
X015269Y006741D01*
X015217Y006689D01*
X015217Y006637D01*
X015347Y006508D02*
X015451Y006611D01*
X015411Y005260D02*
X015411Y005077D01*
X015448Y005040D01*
X015521Y005040D01*
X015558Y005077D01*
X015558Y005260D01*
X015632Y005260D02*
X015779Y005260D01*
X015705Y005260D02*
X015705Y005040D01*
X015337Y005077D02*
X015300Y005040D01*
X015227Y005040D01*
X015190Y005077D01*
X015190Y005223D01*
X015227Y005260D01*
X015300Y005260D01*
X015337Y005223D01*
X015337Y005077D01*
X015727Y004260D02*
X015690Y004223D01*
X015690Y004077D01*
X015727Y004040D01*
X015800Y004040D01*
X015837Y004077D01*
X015837Y004150D01*
X015763Y004150D01*
X015837Y004223D02*
X015800Y004260D01*
X015727Y004260D01*
X010208Y002310D02*
X010134Y002273D01*
X010061Y002200D01*
X010171Y002200D01*
X010208Y002163D01*
X010208Y002127D01*
X010171Y002090D01*
X010098Y002090D01*
X010061Y002127D01*
X010061Y002200D01*
X009987Y002127D02*
X009950Y002090D01*
X009877Y002090D01*
X009840Y002127D01*
X009840Y002273D01*
X009877Y002310D01*
X009950Y002310D01*
X009987Y002273D01*
X011827Y009148D02*
X011973Y009148D01*
X012010Y009185D01*
X012010Y009258D01*
X011973Y009295D01*
X011900Y009369D02*
X011900Y009516D01*
X012010Y009479D02*
X011790Y009479D01*
X011900Y009369D01*
X011827Y009295D02*
X011790Y009258D01*
X011790Y009185D01*
X011827Y009148D01*
D11*
X012344Y005565D02*
X012344Y005195D01*
X012159Y005195D01*
X012097Y005257D01*
X012097Y005380D01*
X012159Y005442D01*
X012344Y005442D01*
X012465Y005442D02*
X012465Y005195D01*
X012465Y005318D02*
X012589Y005442D01*
X012650Y005442D01*
X012834Y005442D02*
X012957Y005442D01*
X013019Y005380D01*
X013019Y005195D01*
X012834Y005195D01*
X012772Y005257D01*
X012834Y005318D01*
X013019Y005318D01*
X013141Y005318D02*
X013326Y005442D01*
X013447Y005380D02*
X013509Y005442D01*
X013633Y005442D01*
X013694Y005380D01*
X013694Y005318D01*
X013447Y005318D01*
X013447Y005257D02*
X013447Y005380D01*
X013447Y005257D02*
X013509Y005195D01*
X013633Y005195D01*
X013816Y005380D02*
X014063Y005380D01*
X014184Y005257D02*
X014246Y005195D01*
X014431Y005195D01*
X014431Y005380D01*
X014369Y005442D01*
X014246Y005442D01*
X014246Y005318D02*
X014431Y005318D01*
X014552Y005195D02*
X014552Y005442D01*
X014614Y005442D01*
X014676Y005380D01*
X014738Y005442D01*
X014799Y005380D01*
X014799Y005195D01*
X014921Y005195D02*
X015106Y005195D01*
X015168Y005257D01*
X015168Y005380D01*
X015106Y005442D01*
X014921Y005442D01*
X014921Y005072D01*
X014676Y005195D02*
X014676Y005380D01*
X014246Y005318D02*
X014184Y005257D01*
X013326Y005195D02*
X013141Y005318D01*
X013141Y005195D02*
X013141Y005565D01*
X011607Y005380D02*
X011607Y005195D01*
X011484Y005195D02*
X011484Y005380D01*
X011545Y005442D01*
X011607Y005380D01*
X011484Y005380D02*
X011422Y005442D01*
X011360Y005442D01*
X011360Y005195D01*
X011239Y005257D02*
X011239Y005380D01*
X011177Y005442D01*
X011054Y005442D01*
X010992Y005380D01*
X010992Y005257D01*
X011054Y005195D01*
X011177Y005195D01*
X011239Y005257D01*
X010871Y005195D02*
X010685Y005195D01*
X010624Y005257D01*
X010624Y005380D01*
X010685Y005442D01*
X010871Y005442D01*
X010501Y005257D02*
X010501Y005195D01*
X010440Y005195D01*
X010440Y005257D01*
X010501Y005257D01*
X010318Y005442D02*
X010256Y005442D01*
X010133Y005318D01*
X010011Y005318D02*
X009764Y005318D01*
X009764Y005257D02*
X009764Y005380D01*
X009826Y005442D01*
X009949Y005442D01*
X010011Y005380D01*
X010011Y005318D01*
X009949Y005195D02*
X009826Y005195D01*
X009764Y005257D01*
X009643Y005195D02*
X009457Y005318D01*
X009643Y005442D01*
X009457Y005565D02*
X009457Y005195D01*
X009336Y005195D02*
X009151Y005195D01*
X009089Y005257D01*
X009151Y005318D01*
X009336Y005318D01*
X009336Y005380D02*
X009336Y005195D01*
X009336Y005380D02*
X009274Y005442D01*
X009151Y005442D01*
X008968Y005380D02*
X008906Y005442D01*
X008721Y005442D01*
X008721Y005565D02*
X008721Y005195D01*
X008906Y005195D01*
X008968Y005257D01*
X008968Y005380D01*
X008599Y005380D02*
X008599Y005195D01*
X008476Y005195D02*
X008476Y005380D01*
X008538Y005442D01*
X008599Y005380D01*
X008476Y005380D02*
X008414Y005442D01*
X008352Y005442D01*
X008352Y005195D01*
X008231Y005257D02*
X008169Y005318D01*
X008046Y005318D01*
X007984Y005380D01*
X008046Y005442D01*
X008231Y005442D01*
X008231Y005257D02*
X008169Y005195D01*
X007984Y005195D01*
X007862Y005195D02*
X007800Y005195D01*
X007800Y005257D01*
X007862Y005257D01*
X007862Y005195D01*
X007679Y005257D02*
X007679Y005442D01*
X007679Y005257D02*
X007617Y005195D01*
X007555Y005257D01*
X007493Y005195D01*
X007432Y005257D01*
X007432Y005442D01*
X007310Y005442D02*
X007310Y005257D01*
X007248Y005195D01*
X007187Y005257D01*
X007125Y005195D01*
X007063Y005257D01*
X007063Y005442D01*
X006942Y005442D02*
X006942Y005257D01*
X006880Y005195D01*
X006818Y005257D01*
X006757Y005195D01*
X006695Y005257D01*
X006695Y005442D01*
X010133Y005442D02*
X010133Y005195D01*
D12*
X002580Y003680D02*
X001780Y003680D01*
X001680Y003780D01*
X001680Y004580D01*
X001780Y004680D01*
X001680Y004780D01*
X001680Y005580D01*
X001780Y005680D01*
X002580Y005680D01*
X002680Y005580D01*
X002680Y004780D01*
X002580Y004680D01*
X002680Y004580D01*
X002680Y003780D01*
X002580Y003680D01*
X003030Y004680D02*
X004730Y004680D01*
X004747Y004682D01*
X004764Y004686D01*
X004780Y004693D01*
X004794Y004703D01*
X004807Y004716D01*
X004817Y004730D01*
X004824Y004746D01*
X004828Y004763D01*
X004830Y004780D01*
X004830Y005580D01*
X004828Y005597D01*
X004824Y005614D01*
X004817Y005630D01*
X004807Y005644D01*
X004794Y005657D01*
X004780Y005667D01*
X004764Y005674D01*
X004747Y005678D01*
X004730Y005680D01*
X003030Y005680D01*
X003013Y005678D01*
X002996Y005674D01*
X002980Y005667D01*
X002966Y005657D01*
X002953Y005644D01*
X002943Y005630D01*
X002936Y005614D01*
X002932Y005597D01*
X002930Y005580D01*
X002930Y004780D01*
X002932Y004763D01*
X002936Y004746D01*
X002943Y004730D01*
X002953Y004716D01*
X002966Y004703D01*
X002980Y004693D01*
X002996Y004686D01*
X003013Y004682D01*
X003030Y004680D01*
X003730Y005180D02*
X003780Y005180D01*
X003980Y005180D02*
X004030Y005180D01*
X002530Y006180D02*
X002530Y006680D01*
X001680Y006680D01*
X001680Y006180D01*
X001180Y006180D01*
X001180Y010180D01*
X001680Y010180D01*
X001680Y009680D01*
X002530Y009680D01*
X002530Y010180D01*
X007180Y010180D01*
X007180Y006180D01*
X002530Y006180D01*
X001570Y008180D02*
X001572Y008233D01*
X001578Y008286D01*
X001588Y008338D01*
X001602Y008389D01*
X001619Y008439D01*
X001640Y008488D01*
X001665Y008535D01*
X001693Y008580D01*
X001725Y008623D01*
X001760Y008663D01*
X001797Y008700D01*
X001837Y008735D01*
X001880Y008767D01*
X001925Y008795D01*
X001972Y008820D01*
X002021Y008841D01*
X002071Y008858D01*
X002122Y008872D01*
X002174Y008882D01*
X002227Y008888D01*
X002280Y008890D01*
X002333Y008888D01*
X002386Y008882D01*
X002438Y008872D01*
X002489Y008858D01*
X002539Y008841D01*
X002588Y008820D01*
X002635Y008795D01*
X002680Y008767D01*
X002723Y008735D01*
X002763Y008700D01*
X002800Y008663D01*
X002835Y008623D01*
X002867Y008580D01*
X002895Y008535D01*
X002920Y008488D01*
X002941Y008439D01*
X002958Y008389D01*
X002972Y008338D01*
X002982Y008286D01*
X002988Y008233D01*
X002990Y008180D01*
X002988Y008127D01*
X002982Y008074D01*
X002972Y008022D01*
X002958Y007971D01*
X002941Y007921D01*
X002920Y007872D01*
X002895Y007825D01*
X002867Y007780D01*
X002835Y007737D01*
X002800Y007697D01*
X002763Y007660D01*
X002723Y007625D01*
X002680Y007593D01*
X002635Y007565D01*
X002588Y007540D01*
X002539Y007519D01*
X002489Y007502D01*
X002438Y007488D01*
X002386Y007478D01*
X002333Y007472D01*
X002280Y007470D01*
X002227Y007472D01*
X002174Y007478D01*
X002122Y007488D01*
X002071Y007502D01*
X002021Y007519D01*
X001972Y007540D01*
X001925Y007565D01*
X001880Y007593D01*
X001837Y007625D01*
X001797Y007660D01*
X001760Y007697D01*
X001725Y007737D01*
X001693Y007780D01*
X001665Y007825D01*
X001640Y007872D01*
X001619Y007921D01*
X001602Y007971D01*
X001588Y008022D01*
X001578Y008074D01*
X001572Y008127D01*
X001570Y008180D01*
X001780Y010680D02*
X002580Y010680D01*
X002680Y010780D01*
X002680Y011580D01*
X002580Y011680D01*
X002680Y011780D01*
X002680Y012580D01*
X002580Y012680D01*
X001780Y012680D01*
X001680Y012580D01*
X001680Y011780D01*
X001780Y011680D01*
X001680Y011580D01*
X001680Y010780D01*
X001780Y010680D01*
X005180Y010880D02*
X005180Y011480D01*
X005182Y011497D01*
X005186Y011514D01*
X005193Y011530D01*
X005203Y011544D01*
X005216Y011557D01*
X005230Y011567D01*
X005246Y011574D01*
X005263Y011578D01*
X005280Y011580D01*
X005430Y011580D01*
X005480Y011530D01*
X006880Y011530D01*
X006930Y011580D01*
X007080Y011580D01*
X007097Y011578D01*
X007114Y011574D01*
X007130Y011567D01*
X007144Y011557D01*
X007157Y011544D01*
X007167Y011530D01*
X007174Y011514D01*
X007178Y011497D01*
X007180Y011480D01*
X007180Y010880D01*
X007178Y010863D01*
X007174Y010846D01*
X007167Y010830D01*
X007157Y010816D01*
X007144Y010803D01*
X007130Y010793D01*
X007114Y010786D01*
X007097Y010782D01*
X007080Y010780D01*
X006930Y010780D01*
X006880Y010830D01*
X005480Y010830D01*
X005430Y010780D01*
X005280Y010780D01*
X005263Y010782D01*
X005246Y010786D01*
X005230Y010793D01*
X005216Y010803D01*
X005203Y010816D01*
X005193Y010830D01*
X005186Y010846D01*
X005182Y010863D01*
X005180Y010880D01*
X006330Y012430D02*
X006230Y012530D01*
X006630Y012530D01*
X006530Y012430D01*
X006330Y012430D01*
X006230Y012530D02*
X006180Y012580D01*
X006180Y014780D01*
X006680Y014780D01*
X006680Y014630D01*
X006680Y012680D01*
X007030Y012680D01*
X007030Y012580D01*
X007080Y012530D01*
X013130Y012530D01*
X013180Y012580D01*
X013180Y014780D01*
X013030Y014930D01*
X007180Y014930D01*
X007030Y014780D01*
X013180Y014780D01*
X012980Y013680D02*
X008230Y013680D01*
X007680Y013680D02*
X007230Y013680D01*
X007380Y013880D02*
X007380Y014180D01*
X007230Y014030D02*
X007530Y014030D01*
X007680Y014280D02*
X007680Y013680D01*
X007680Y013080D01*
X007880Y013080D01*
X007880Y014280D01*
X007680Y014280D01*
X007030Y014630D02*
X007030Y012680D01*
X007030Y012580D02*
X006680Y012580D01*
X006680Y012680D01*
X006680Y012580D02*
X006630Y012530D01*
X007080Y012530D02*
X007180Y012430D01*
X013030Y012430D01*
X013130Y012530D01*
X013830Y011680D02*
X015530Y011680D01*
X015547Y011678D01*
X015564Y011674D01*
X015580Y011667D01*
X015594Y011657D01*
X015607Y011644D01*
X015617Y011630D01*
X015624Y011614D01*
X015628Y011597D01*
X015630Y011580D01*
X015630Y010780D01*
X015628Y010763D01*
X015624Y010746D01*
X015617Y010730D01*
X015607Y010716D01*
X015594Y010703D01*
X015580Y010693D01*
X015564Y010686D01*
X015547Y010682D01*
X015530Y010680D01*
X013830Y010680D01*
X013813Y010682D01*
X013796Y010686D01*
X013780Y010693D01*
X013766Y010703D01*
X013753Y010716D01*
X013743Y010730D01*
X013736Y010746D01*
X013732Y010763D01*
X013730Y010780D01*
X013730Y011580D01*
X013732Y011597D01*
X013736Y011614D01*
X013743Y011630D01*
X013753Y011644D01*
X013766Y011657D01*
X013780Y011667D01*
X013796Y011674D01*
X013813Y011678D01*
X013830Y011680D01*
X014530Y011180D02*
X014580Y011180D01*
X014780Y011180D02*
X014830Y011180D01*
X014430Y010280D02*
X014280Y010280D01*
X014263Y010278D01*
X014246Y010274D01*
X014230Y010267D01*
X014216Y010257D01*
X014203Y010244D01*
X014193Y010230D01*
X014186Y010214D01*
X014182Y010197D01*
X014180Y010180D01*
X014180Y009580D01*
X014182Y009563D01*
X014186Y009546D01*
X014193Y009530D01*
X014203Y009516D01*
X014216Y009503D01*
X014230Y009493D01*
X014246Y009486D01*
X014263Y009482D01*
X014280Y009480D01*
X014430Y009480D01*
X014480Y009530D01*
X015880Y009530D01*
X015930Y009480D01*
X016080Y009480D01*
X016097Y009482D01*
X016114Y009486D01*
X016130Y009493D01*
X016144Y009503D01*
X016157Y009516D01*
X016167Y009530D01*
X016174Y009546D01*
X016178Y009563D01*
X016180Y009580D01*
X016180Y010180D01*
X016178Y010197D01*
X016174Y010214D01*
X016167Y010230D01*
X016157Y010244D01*
X016144Y010257D01*
X016130Y010267D01*
X016114Y010274D01*
X016097Y010278D01*
X016080Y010280D01*
X015930Y010280D01*
X015880Y010230D01*
X014480Y010230D01*
X014430Y010280D01*
X014030Y009180D02*
X012330Y009180D01*
X012313Y009178D01*
X012296Y009174D01*
X012280Y009167D01*
X012266Y009157D01*
X012253Y009144D01*
X012243Y009130D01*
X012236Y009114D01*
X012232Y009097D01*
X012230Y009080D01*
X012230Y008280D01*
X012232Y008263D01*
X012236Y008246D01*
X012243Y008230D01*
X012253Y008216D01*
X012266Y008203D01*
X012280Y008193D01*
X012296Y008186D01*
X012313Y008182D01*
X012330Y008180D01*
X014030Y008180D01*
X014047Y008182D01*
X014064Y008186D01*
X014080Y008193D01*
X014094Y008203D01*
X014107Y008216D01*
X014117Y008230D01*
X014124Y008246D01*
X014128Y008263D01*
X014130Y008280D01*
X014130Y009080D01*
X014128Y009097D01*
X014124Y009114D01*
X014117Y009130D01*
X014107Y009144D01*
X014094Y009157D01*
X014080Y009167D01*
X014064Y009174D01*
X014047Y009178D01*
X014030Y009180D01*
X013330Y008680D02*
X013280Y008680D01*
X013080Y008680D02*
X013030Y008680D01*
X012780Y007480D02*
X012780Y007280D01*
X012680Y007380D02*
X012880Y007380D01*
X012180Y006680D02*
X012182Y006743D01*
X012188Y006805D01*
X012198Y006867D01*
X012211Y006929D01*
X012229Y006989D01*
X012250Y007048D01*
X012275Y007106D01*
X012304Y007162D01*
X012336Y007216D01*
X012371Y007268D01*
X012409Y007317D01*
X012451Y007365D01*
X012495Y007409D01*
X012543Y007451D01*
X012592Y007489D01*
X012644Y007524D01*
X012698Y007556D01*
X012754Y007585D01*
X012812Y007610D01*
X012871Y007631D01*
X012931Y007649D01*
X012993Y007662D01*
X013055Y007672D01*
X013117Y007678D01*
X013180Y007680D01*
X013243Y007678D01*
X013305Y007672D01*
X013367Y007662D01*
X013429Y007649D01*
X013489Y007631D01*
X013548Y007610D01*
X013606Y007585D01*
X013662Y007556D01*
X013716Y007524D01*
X013768Y007489D01*
X013817Y007451D01*
X013865Y007409D01*
X013909Y007365D01*
X013951Y007317D01*
X013989Y007268D01*
X014024Y007216D01*
X014056Y007162D01*
X014085Y007106D01*
X014110Y007048D01*
X014131Y006989D01*
X014149Y006929D01*
X014162Y006867D01*
X014172Y006805D01*
X014178Y006743D01*
X014180Y006680D01*
X014178Y006617D01*
X014172Y006555D01*
X014162Y006493D01*
X014149Y006431D01*
X014131Y006371D01*
X014110Y006312D01*
X014085Y006254D01*
X014056Y006198D01*
X014024Y006144D01*
X013989Y006092D01*
X013951Y006043D01*
X013909Y005995D01*
X013865Y005951D01*
X013817Y005909D01*
X013768Y005871D01*
X013716Y005836D01*
X013662Y005804D01*
X013606Y005775D01*
X013548Y005750D01*
X013489Y005729D01*
X013429Y005711D01*
X013367Y005698D01*
X013305Y005688D01*
X013243Y005682D01*
X013180Y005680D01*
X013117Y005682D01*
X013055Y005688D01*
X012993Y005698D01*
X012931Y005711D01*
X012871Y005729D01*
X012812Y005750D01*
X012754Y005775D01*
X012698Y005804D01*
X012644Y005836D01*
X012592Y005871D01*
X012543Y005909D01*
X012495Y005951D01*
X012451Y005995D01*
X012409Y006043D01*
X012371Y006092D01*
X012336Y006144D01*
X012304Y006198D01*
X012275Y006254D01*
X012250Y006312D01*
X012229Y006371D01*
X012211Y006431D01*
X012198Y006493D01*
X012188Y006555D01*
X012182Y006617D01*
X012180Y006680D01*
X011580Y007730D02*
X010780Y007730D01*
X010763Y007732D01*
X010746Y007736D01*
X010730Y007743D01*
X010716Y007753D01*
X010703Y007766D01*
X010693Y007780D01*
X010686Y007796D01*
X010682Y007813D01*
X010680Y007830D01*
X010680Y009530D01*
X010682Y009547D01*
X010686Y009564D01*
X010693Y009580D01*
X010703Y009594D01*
X010716Y009607D01*
X010730Y009617D01*
X010746Y009624D01*
X010763Y009628D01*
X010780Y009630D01*
X011580Y009630D01*
X011597Y009628D01*
X011614Y009624D01*
X011630Y009617D01*
X011644Y009607D01*
X011657Y009594D01*
X011667Y009580D01*
X011674Y009564D01*
X011678Y009547D01*
X011680Y009530D01*
X011680Y007830D01*
X011678Y007813D01*
X011674Y007796D01*
X011667Y007780D01*
X011657Y007766D01*
X011644Y007753D01*
X011630Y007743D01*
X011614Y007736D01*
X011597Y007732D01*
X011580Y007730D01*
X011180Y008530D02*
X011180Y008580D01*
X011180Y008780D02*
X011180Y008830D01*
X011080Y010780D02*
X010930Y010780D01*
X010880Y010830D01*
X009480Y010830D01*
X009430Y010780D01*
X009280Y010780D01*
X009263Y010782D01*
X009246Y010786D01*
X009230Y010793D01*
X009216Y010803D01*
X009203Y010816D01*
X009193Y010830D01*
X009186Y010846D01*
X009182Y010863D01*
X009180Y010880D01*
X009180Y011480D01*
X009182Y011497D01*
X009186Y011514D01*
X009193Y011530D01*
X009203Y011544D01*
X009216Y011557D01*
X009230Y011567D01*
X009246Y011574D01*
X009263Y011578D01*
X009280Y011580D01*
X009430Y011580D01*
X009480Y011530D01*
X010880Y011530D01*
X010930Y011580D01*
X011080Y011580D01*
X011097Y011578D01*
X011114Y011574D01*
X011130Y011567D01*
X011144Y011557D01*
X011157Y011544D01*
X011167Y011530D01*
X011174Y011514D01*
X011178Y011497D01*
X011180Y011480D01*
X011180Y010880D01*
X011178Y010863D01*
X011174Y010846D01*
X011167Y010830D01*
X011157Y010816D01*
X011144Y010803D01*
X011130Y010793D01*
X011114Y010786D01*
X011097Y010782D01*
X011080Y010780D01*
X014867Y006933D02*
X014761Y006826D01*
X014760Y006827D02*
X014749Y006813D01*
X014740Y006798D01*
X014734Y006782D01*
X014731Y006765D01*
X014731Y006747D01*
X014734Y006730D01*
X014740Y006714D01*
X014749Y006699D01*
X014760Y006685D01*
X014761Y006685D02*
X015185Y006261D01*
X015185Y006260D02*
X015199Y006249D01*
X015214Y006240D01*
X015230Y006234D01*
X015247Y006231D01*
X015265Y006231D01*
X015282Y006234D01*
X015298Y006240D01*
X015313Y006249D01*
X015327Y006260D01*
X015326Y006261D02*
X015433Y006367D01*
X015433Y006438D01*
X016422Y007427D01*
X016493Y007427D01*
X016599Y007534D01*
X016600Y007533D02*
X016611Y007547D01*
X016620Y007562D01*
X016626Y007578D01*
X016629Y007595D01*
X016629Y007613D01*
X016626Y007630D01*
X016620Y007646D01*
X016611Y007661D01*
X016600Y007675D01*
X016599Y007675D02*
X016175Y008099D01*
X016175Y008100D02*
X016161Y008111D01*
X016146Y008120D01*
X016130Y008126D01*
X016113Y008129D01*
X016095Y008129D01*
X016078Y008126D01*
X016062Y008120D01*
X016047Y008111D01*
X016033Y008100D01*
X016034Y008099D02*
X015927Y007993D01*
X015927Y007922D01*
X014938Y006933D01*
X014867Y006933D01*
X016180Y005580D02*
X016280Y005680D01*
X017080Y005680D01*
X017180Y005580D01*
X017180Y004780D01*
X017080Y004680D01*
X017180Y004580D01*
X017180Y003780D01*
X017080Y003680D01*
X016280Y003680D01*
X016180Y003780D01*
X016180Y004580D01*
X016280Y004680D01*
X016180Y004780D01*
X016180Y005580D01*
X013680Y004830D02*
X006530Y004830D01*
X006230Y004830D01*
X005680Y004830D01*
X005680Y001530D01*
X005730Y001480D01*
X006180Y001480D01*
X006230Y001530D01*
X006530Y001530D01*
X006580Y001480D01*
X013630Y001480D01*
X013680Y001530D01*
X013680Y004830D01*
X013580Y004930D01*
X006630Y004930D01*
X006530Y004830D01*
X006530Y004730D01*
X006530Y001580D01*
X006530Y001550D01*
X006230Y001550D01*
X006230Y001580D01*
X006530Y001580D01*
X006530Y001550D02*
X006530Y001530D01*
X006580Y001480D02*
X006630Y001430D01*
X006630Y001450D01*
X013580Y001450D01*
X013580Y001430D02*
X013630Y001480D01*
X013580Y001430D02*
X006630Y001430D01*
X006230Y001530D02*
X006230Y001550D01*
X006230Y001580D02*
X006230Y004730D01*
X006530Y004730D01*
X006230Y004730D02*
X006230Y004830D01*
X006130Y004930D01*
X005780Y004930D01*
X005680Y004830D01*
X006880Y003680D02*
X006880Y003380D01*
X006730Y003530D02*
X007030Y003530D01*
X007180Y003780D02*
X007180Y003180D01*
X006730Y003180D01*
X007180Y003180D02*
X007180Y002580D01*
X007380Y002580D01*
X007380Y003780D01*
X007180Y003780D01*
X007730Y003180D02*
X013480Y003180D01*
X006180Y001480D02*
X006130Y001430D01*
X006130Y001450D01*
X005780Y001450D01*
X005780Y001430D02*
X005730Y001480D01*
X005780Y001430D02*
X006130Y001430D01*
X016180Y010780D02*
X016280Y010680D01*
X017080Y010680D01*
X017180Y010780D01*
X017180Y011580D01*
X017080Y011680D01*
X017180Y011780D01*
X017180Y012580D01*
X017080Y012680D01*
X016280Y012680D01*
X016180Y012580D01*
X016180Y011780D01*
X016280Y011680D01*
X016180Y011580D01*
X016180Y010780D01*
X007030Y014630D02*
X006680Y014630D01*
X006680Y014780D02*
X007030Y014780D01*
X007030Y014630D01*
X006680Y014780D02*
X006530Y014930D01*
X006330Y014930D01*
X006180Y014780D01*
D13*
X006280Y014830D02*
X006580Y014830D01*
X006530Y014880D02*
X006330Y014880D01*
X006730Y014730D02*
X006980Y014730D01*
X006980Y014680D02*
X006730Y014680D01*
X007130Y014830D02*
X013080Y014830D01*
X013030Y014880D02*
X007180Y014880D01*
X006630Y004880D02*
X013580Y004880D01*
X006480Y004780D02*
X006280Y004780D01*
X006130Y004880D02*
X005780Y004880D01*
D14*
X003980Y004880D02*
X003980Y005180D01*
X003980Y005480D01*
X003780Y005480D02*
X003780Y005180D01*
X003780Y004880D01*
X010880Y008580D02*
X011180Y008580D01*
X011480Y008580D01*
X011480Y008780D02*
X011180Y008780D01*
X010880Y008780D01*
X013080Y008680D02*
X013080Y008380D01*
X013280Y008380D02*
X013280Y008680D01*
X013280Y008980D01*
X013080Y008980D02*
X013080Y008680D01*
X014580Y010880D02*
X014580Y011180D01*
X014580Y011480D01*
X014780Y011480D02*
X014780Y011180D01*
X014780Y010880D01*
X013030Y012480D02*
X007180Y012480D01*
X006980Y012630D02*
X006730Y012630D01*
X006530Y012480D02*
X006330Y012480D01*
D15*
X008180Y013680D03*
X007680Y003180D03*
D16*
X005505Y003180D03*
X013855Y003180D03*
X013355Y013680D03*
X006005Y013680D03*
D17*
X008180Y009680D03*
X008180Y008180D03*
X008180Y006680D03*
D18*
X007305Y007430D03*
X007305Y008930D03*
D19*
X007255Y011180D03*
X009105Y011180D03*
X011255Y011180D03*
X014105Y009880D03*
X016255Y009880D03*
G36*
X016317Y007957D02*
X016423Y008063D01*
X016563Y007923D01*
X016457Y007817D01*
X016317Y007957D01*
G37*
G36*
X014797Y006437D02*
X014903Y006543D01*
X015043Y006403D01*
X014937Y006297D01*
X014797Y006437D01*
G37*
X005105Y011180D03*
M02*
