%
M48
M72
T01C0.0320
T02C0.0360
T03C0.0400
T04C0.0440
T05C0.1250
T06C0.1300
T07C0.1500
%
T01
X3380Y5180
X4380Y5180
X4680Y11180
X7680Y11180
X8680Y11180
X11180Y9180
X11180Y8180
X12680Y8680
X13680Y8680
X13680Y9880
X14180Y11180
X15180Y11180
X16680Y9880
X16741Y8241
X14619Y6119
X13580Y6680
X12780Y6680
X11680Y11180
T02
X16680Y11180
X16680Y12180
X16680Y5180
X16680Y4180
X2180Y4180
X2180Y5180
X2180Y11180
X2180Y12180
T03
X3680Y10680
X5180Y13680
X9680Y9680
X9680Y8180
X11180Y7180
X9680Y6680
X7930Y7430
X7930Y8930
X5380Y5180
X13180Y11180
X14180Y13680
X14680Y8680
T04
X14680Y3180
X4680Y3180
T05
X2680Y14180
X16180Y14180
T06
X2280Y8180
T07
X2680Y2180
X16180Y2180
M30
