G75*
%MOIN*%
%OFA0B0*%
%FSLAX24Y24*%
%IPPOS*%
%LPD*%
%AMOC8*
5,1,8,0,0,1.08239X$1,22.5*
%
%ADD10OC8,0.0520*%
%ADD11C,0.0520*%
%ADD12C,0.1240*%
%ADD13OC8,0.1240*%
%ADD14C,0.0600*%
%ADD15C,0.0104*%
%ADD16C,0.0560*%
%ADD17OC8,0.0600*%
%ADD18C,0.1650*%
%ADD19C,0.0120*%
%ADD20C,0.0160*%
D10*
X003380Y005180D03*
X004380Y005180D03*
X004680Y011180D03*
X007680Y011180D03*
X008680Y011180D03*
X011180Y009180D03*
X011180Y008180D03*
X012680Y008680D03*
X013680Y008680D03*
X013680Y009880D03*
X014180Y011180D03*
X015180Y011180D03*
X016680Y009880D03*
X013580Y006680D03*
X011680Y011180D03*
D11*
X012780Y006680D03*
D12*
X005180Y013680D03*
X004680Y003180D03*
D13*
X014680Y003180D03*
X014180Y013680D03*
D14*
X009980Y009680D02*
X009380Y009680D01*
X008230Y008930D02*
X007630Y008930D01*
X007630Y007430D02*
X008230Y007430D01*
X009380Y006680D02*
X009980Y006680D01*
X009980Y008180D02*
X009380Y008180D01*
D15*
X014464Y006085D02*
X014412Y006033D01*
X014412Y006205D01*
X014533Y006326D01*
X014705Y006326D01*
X014826Y006205D01*
X014826Y006033D01*
X014705Y005912D01*
X014533Y005912D01*
X014412Y006033D01*
X014490Y006065D01*
X014490Y006173D01*
X014565Y006248D01*
X014673Y006248D01*
X014748Y006173D01*
X014748Y006065D01*
X014673Y005990D01*
X014565Y005990D01*
X014490Y006065D01*
X014568Y006098D01*
X014568Y006140D01*
X014598Y006170D01*
X014640Y006170D01*
X014670Y006140D01*
X014670Y006098D01*
X014640Y006068D01*
X014598Y006068D01*
X014568Y006098D01*
X016586Y008207D02*
X016534Y008155D01*
X016534Y008327D01*
X016655Y008448D01*
X016827Y008448D01*
X016948Y008327D01*
X016948Y008155D01*
X016827Y008034D01*
X016655Y008034D01*
X016534Y008155D01*
X016612Y008187D01*
X016612Y008295D01*
X016687Y008370D01*
X016795Y008370D01*
X016870Y008295D01*
X016870Y008187D01*
X016795Y008112D01*
X016687Y008112D01*
X016612Y008187D01*
X016690Y008220D01*
X016690Y008262D01*
X016720Y008292D01*
X016762Y008292D01*
X016792Y008262D01*
X016792Y008220D01*
X016762Y008190D01*
X016720Y008190D01*
X016690Y008220D01*
D16*
X016960Y011180D02*
X016400Y011180D01*
X016400Y012180D02*
X016960Y012180D01*
X016960Y005180D02*
X016400Y005180D01*
X016400Y004180D02*
X016960Y004180D01*
X002460Y004180D02*
X001900Y004180D01*
X001900Y005180D02*
X002460Y005180D01*
X002460Y011180D02*
X001900Y011180D01*
X001900Y012180D02*
X002460Y012180D01*
D17*
X003680Y010680D03*
X005380Y005180D03*
X011180Y007180D03*
X014680Y008680D03*
X013180Y011180D03*
D18*
X016180Y014180D03*
X002680Y014180D03*
D19*
X005180Y013680D02*
X005430Y013680D01*
X005930Y013180D01*
X005930Y009430D01*
X007930Y007430D01*
X004430Y006180D02*
X004430Y009930D01*
X003430Y009930D01*
X002180Y011180D01*
X004430Y006180D02*
X003430Y005180D01*
X003380Y005180D01*
D20*
X001460Y003988D02*
X001460Y000960D01*
X017270Y000960D01*
X017270Y003840D01*
X017260Y003829D01*
X017201Y003787D01*
X017137Y003754D01*
X017068Y003731D01*
X016996Y003720D01*
X016690Y003720D01*
X016690Y004170D01*
X016670Y004170D01*
X016670Y003720D01*
X016364Y003720D01*
X016292Y003731D01*
X016223Y003754D01*
X016159Y003787D01*
X016100Y003829D01*
X016049Y003880D01*
X016007Y003939D01*
X015974Y004003D01*
X015951Y004072D01*
X015940Y004144D01*
X015940Y004170D01*
X016670Y004170D01*
X016670Y004190D01*
X016670Y004640D01*
X016364Y004640D01*
X016292Y004629D01*
X016223Y004606D01*
X016159Y004573D01*
X016100Y004531D01*
X016049Y004480D01*
X016007Y004421D01*
X015974Y004357D01*
X015951Y004288D01*
X015940Y004216D01*
X015940Y004190D01*
X016670Y004190D01*
X016690Y004190D01*
X016690Y004640D01*
X016996Y004640D01*
X017068Y004629D01*
X017137Y004606D01*
X017201Y004573D01*
X017260Y004531D01*
X017270Y004520D01*
X017270Y004811D01*
X017232Y004773D01*
X017055Y004700D01*
X016305Y004700D01*
X016128Y004773D01*
X015993Y004908D01*
X015920Y005085D01*
X015920Y005275D01*
X015993Y005452D01*
X016128Y005587D01*
X016305Y005660D01*
X017055Y005660D01*
X017232Y005587D01*
X017270Y005549D01*
X017270Y010811D01*
X017232Y010773D01*
X017055Y010700D01*
X016305Y010700D01*
X016128Y010773D01*
X015993Y010908D01*
X015920Y011085D01*
X015920Y011275D01*
X015993Y011452D01*
X016128Y011587D01*
X016305Y011660D01*
X017055Y011660D01*
X017232Y011587D01*
X017270Y011549D01*
X017270Y011840D01*
X017260Y011829D01*
X017201Y011787D01*
X017137Y011754D01*
X017068Y011731D01*
X016996Y011720D01*
X016690Y011720D01*
X016690Y012170D01*
X016670Y012170D01*
X016670Y011720D01*
X016364Y011720D01*
X016292Y011731D01*
X016223Y011754D01*
X016159Y011787D01*
X016100Y011829D01*
X016049Y011880D01*
X016007Y011939D01*
X015974Y012003D01*
X015951Y012072D01*
X015940Y012144D01*
X015940Y012170D01*
X016670Y012170D01*
X016670Y012190D01*
X016670Y012640D01*
X016364Y012640D01*
X016292Y012629D01*
X016223Y012606D01*
X016159Y012573D01*
X016100Y012531D01*
X016049Y012480D01*
X016007Y012421D01*
X015974Y012357D01*
X015951Y012288D01*
X015940Y012216D01*
X015940Y012190D01*
X016670Y012190D01*
X016690Y012190D01*
X016690Y012640D01*
X016996Y012640D01*
X017068Y012629D01*
X017137Y012606D01*
X017201Y012573D01*
X017260Y012531D01*
X017270Y012520D01*
X017270Y015400D01*
X001460Y015400D01*
X001460Y012314D01*
X001474Y012357D01*
X001507Y012421D01*
X001549Y012480D01*
X001600Y012531D01*
X001659Y012573D01*
X001723Y012606D01*
X001792Y012629D01*
X001864Y012640D01*
X002170Y012640D01*
X002170Y012190D01*
X002190Y012190D01*
X002190Y012640D01*
X002496Y012640D01*
X002568Y012629D01*
X002637Y012606D01*
X002701Y012573D01*
X002760Y012531D01*
X002811Y012480D01*
X002853Y012421D01*
X002886Y012357D01*
X002909Y012288D01*
X002920Y012216D01*
X002920Y012190D01*
X002190Y012190D01*
X002190Y012170D01*
X002920Y012170D01*
X002920Y012144D01*
X002909Y012072D01*
X002886Y012003D01*
X002853Y011939D01*
X002811Y011880D01*
X002760Y011829D01*
X002701Y011787D01*
X002637Y011754D01*
X002568Y011731D01*
X002496Y011720D01*
X002190Y011720D01*
X002190Y012170D01*
X002170Y012170D01*
X002170Y011720D01*
X001864Y011720D01*
X001792Y011731D01*
X001723Y011754D01*
X001659Y011787D01*
X001600Y011829D01*
X001549Y011880D01*
X001507Y011939D01*
X001474Y012003D01*
X001460Y012046D01*
X001460Y011372D01*
X001493Y011452D01*
X001628Y011587D01*
X001805Y011660D01*
X002555Y011660D01*
X002732Y011587D01*
X002867Y011452D01*
X002940Y011275D01*
X002940Y011085D01*
X002867Y010908D01*
X002843Y010884D01*
X003200Y010528D01*
X003200Y010660D01*
X003660Y010660D01*
X003660Y010700D01*
X003660Y011160D01*
X003481Y011160D01*
X003200Y010879D01*
X003200Y010700D01*
X003660Y010700D01*
X003700Y010700D01*
X003700Y011160D01*
X003879Y011160D01*
X004160Y010879D01*
X004160Y010700D01*
X003700Y010700D01*
X003700Y010660D01*
X004160Y010660D01*
X004160Y010481D01*
X003879Y010200D01*
X003700Y010200D01*
X003700Y010660D01*
X003660Y010660D01*
X003660Y010200D01*
X003528Y010200D01*
X003538Y010190D01*
X004482Y010190D01*
X004577Y010150D01*
X004650Y010077D01*
X004690Y009982D01*
X004690Y006128D01*
X004650Y006033D01*
X004577Y005960D01*
X004577Y005960D01*
X004238Y005620D01*
X004380Y005620D01*
X004380Y005180D01*
X004380Y005180D01*
X004820Y005180D01*
X004820Y005362D01*
X004562Y005620D01*
X004380Y005620D01*
X004380Y005180D01*
X004380Y005180D01*
X004820Y005180D01*
X004820Y004998D01*
X004562Y004740D01*
X004380Y004740D01*
X004380Y005180D01*
X004380Y005180D01*
X004380Y005180D01*
X003940Y005180D01*
X003940Y005322D01*
X003840Y005222D01*
X003840Y004989D01*
X003571Y004720D01*
X003189Y004720D01*
X002920Y004989D01*
X002920Y005371D01*
X003189Y005640D01*
X003522Y005640D01*
X004170Y006288D01*
X004170Y009670D01*
X003378Y009670D01*
X003283Y009710D01*
X002292Y010700D01*
X001805Y010700D01*
X001628Y010773D01*
X001493Y010908D01*
X001460Y010988D01*
X001460Y009099D01*
X001525Y009164D01*
X001805Y009326D01*
X002118Y009410D01*
X002442Y009410D01*
X002755Y009326D01*
X003035Y009164D01*
X003264Y008935D01*
X003426Y008655D01*
X003510Y008342D01*
X003510Y008018D01*
X003426Y007705D01*
X003264Y007425D01*
X003035Y007196D01*
X002755Y007034D01*
X002442Y006950D01*
X002118Y006950D01*
X001805Y007034D01*
X001525Y007196D01*
X001460Y007261D01*
X001460Y005314D01*
X001474Y005357D01*
X001507Y005421D01*
X001549Y005480D01*
X001600Y005531D01*
X001659Y005573D01*
X001723Y005606D01*
X001792Y005629D01*
X001864Y005640D01*
X002170Y005640D01*
X002170Y005190D01*
X002190Y005190D01*
X002190Y005640D01*
X002496Y005640D01*
X002568Y005629D01*
X002637Y005606D01*
X002701Y005573D01*
X002760Y005531D01*
X002811Y005480D01*
X002853Y005421D01*
X002886Y005357D01*
X002909Y005288D01*
X002920Y005216D01*
X002920Y005190D01*
X002190Y005190D01*
X002190Y005170D01*
X002920Y005170D01*
X002920Y005144D01*
X002909Y005072D01*
X002886Y005003D01*
X002853Y004939D01*
X002811Y004880D01*
X002760Y004829D01*
X002701Y004787D01*
X002637Y004754D01*
X002568Y004731D01*
X002496Y004720D01*
X002190Y004720D01*
X002190Y005170D01*
X002170Y005170D01*
X002170Y004720D01*
X001864Y004720D01*
X001792Y004731D01*
X001723Y004754D01*
X001659Y004787D01*
X001600Y004829D01*
X001549Y004880D01*
X001507Y004939D01*
X001474Y005003D01*
X001460Y005046D01*
X001460Y004372D01*
X001493Y004452D01*
X001628Y004587D01*
X001805Y004660D01*
X002555Y004660D01*
X002732Y004587D01*
X002867Y004452D01*
X002940Y004275D01*
X002940Y004085D01*
X002867Y003908D01*
X002732Y003773D01*
X002555Y003700D01*
X001805Y003700D01*
X001628Y003773D01*
X001493Y003908D01*
X001460Y003988D01*
X001460Y003850D02*
X001551Y003850D01*
X001460Y003692D02*
X004032Y003692D01*
X003985Y003644D02*
X003860Y003343D01*
X003860Y003017D01*
X003985Y002716D01*
X004216Y002485D01*
X004517Y002360D01*
X004843Y002360D01*
X005144Y002485D01*
X005375Y002716D01*
X005500Y003017D01*
X005500Y003343D01*
X005375Y003644D01*
X005144Y003875D01*
X004843Y004000D01*
X004517Y004000D01*
X004216Y003875D01*
X003985Y003644D01*
X003939Y003533D02*
X001460Y003533D01*
X001460Y003375D02*
X003873Y003375D01*
X003860Y003216D02*
X001460Y003216D01*
X001460Y003058D02*
X002140Y003058D01*
X002048Y003004D02*
X001856Y002812D01*
X001720Y002578D01*
X001650Y002316D01*
X001650Y002044D01*
X001720Y001782D01*
X001856Y001548D01*
X002048Y001356D01*
X002282Y001220D01*
X002544Y001150D01*
X002816Y001150D01*
X003078Y001220D01*
X003312Y001356D01*
X003504Y001548D01*
X003640Y001782D01*
X003710Y002044D01*
X003710Y002316D01*
X003640Y002578D01*
X003504Y002812D01*
X003312Y003004D01*
X003078Y003140D01*
X002816Y003210D01*
X002544Y003210D01*
X002282Y003140D01*
X002048Y003004D01*
X001942Y002899D02*
X001460Y002899D01*
X001460Y002741D02*
X001814Y002741D01*
X001723Y002582D02*
X001460Y002582D01*
X001460Y002424D02*
X001679Y002424D01*
X001650Y002265D02*
X001460Y002265D01*
X001460Y002107D02*
X001650Y002107D01*
X001676Y001948D02*
X001460Y001948D01*
X001460Y001790D02*
X001718Y001790D01*
X001808Y001631D02*
X001460Y001631D01*
X001460Y001473D02*
X001931Y001473D01*
X002120Y001314D02*
X001460Y001314D01*
X001460Y001156D02*
X002524Y001156D01*
X002836Y001156D02*
X016024Y001156D01*
X016044Y001150D02*
X016316Y001150D01*
X016578Y001220D01*
X016812Y001356D01*
X017004Y001548D01*
X017140Y001782D01*
X017210Y002044D01*
X017210Y002316D01*
X017140Y002578D01*
X017004Y002812D01*
X016812Y003004D01*
X016578Y003140D01*
X016316Y003210D01*
X016044Y003210D01*
X015782Y003140D01*
X015548Y003004D01*
X015500Y002957D01*
X015500Y003520D01*
X015020Y004000D01*
X014340Y004000D01*
X013860Y003520D01*
X013860Y002840D01*
X014340Y002360D01*
X015020Y002360D01*
X015214Y002554D01*
X015150Y002316D01*
X015150Y002044D01*
X015220Y001782D01*
X015356Y001548D01*
X015548Y001356D01*
X015782Y001220D01*
X016044Y001150D01*
X016336Y001156D02*
X017270Y001156D01*
X017270Y001314D02*
X016740Y001314D01*
X016929Y001473D02*
X017270Y001473D01*
X017270Y001631D02*
X017052Y001631D01*
X017142Y001790D02*
X017270Y001790D01*
X017270Y001948D02*
X017184Y001948D01*
X017210Y002107D02*
X017270Y002107D01*
X017270Y002265D02*
X017210Y002265D01*
X017181Y002424D02*
X017270Y002424D01*
X017270Y002582D02*
X017137Y002582D01*
X017046Y002741D02*
X017270Y002741D01*
X017270Y002899D02*
X016918Y002899D01*
X016720Y003058D02*
X017270Y003058D01*
X017270Y003216D02*
X015500Y003216D01*
X015500Y003058D02*
X015640Y003058D01*
X015500Y003375D02*
X017270Y003375D01*
X017270Y003533D02*
X015487Y003533D01*
X015328Y003692D02*
X017270Y003692D01*
X016690Y003850D02*
X016670Y003850D01*
X016670Y004009D02*
X016690Y004009D01*
X016690Y004167D02*
X016670Y004167D01*
X016670Y004326D02*
X016690Y004326D01*
X016690Y004484D02*
X016670Y004484D01*
X017270Y004643D02*
X002598Y004643D01*
X002721Y004801D02*
X003108Y004801D01*
X002950Y004960D02*
X002864Y004960D01*
X002916Y005118D02*
X002920Y005118D01*
X002910Y005277D02*
X002920Y005277D01*
X002984Y005435D02*
X002843Y005435D01*
X002662Y005594D02*
X003143Y005594D01*
X003634Y005752D02*
X001460Y005752D01*
X001460Y005594D02*
X001698Y005594D01*
X001517Y005435D02*
X001460Y005435D01*
X001460Y004960D02*
X001496Y004960D01*
X001460Y004801D02*
X001639Y004801D01*
X001762Y004643D02*
X001460Y004643D01*
X001460Y004484D02*
X001525Y004484D01*
X002170Y004801D02*
X002190Y004801D01*
X002190Y004960D02*
X002170Y004960D01*
X002170Y005118D02*
X002190Y005118D01*
X002190Y005277D02*
X002170Y005277D01*
X002170Y005435D02*
X002190Y005435D01*
X002190Y005594D02*
X002170Y005594D01*
X001460Y005911D02*
X003793Y005911D01*
X003951Y006069D02*
X001460Y006069D01*
X001460Y006228D02*
X004110Y006228D01*
X004170Y006386D02*
X001460Y006386D01*
X001460Y006545D02*
X004170Y006545D01*
X004170Y006703D02*
X001460Y006703D01*
X001460Y006862D02*
X004170Y006862D01*
X004170Y007020D02*
X002703Y007020D01*
X003005Y007179D02*
X004170Y007179D01*
X004170Y007337D02*
X003176Y007337D01*
X003305Y007496D02*
X004170Y007496D01*
X004170Y007654D02*
X003397Y007654D01*
X003455Y007813D02*
X004170Y007813D01*
X004170Y007971D02*
X003497Y007971D01*
X003510Y008130D02*
X004170Y008130D01*
X004170Y008288D02*
X003510Y008288D01*
X003482Y008447D02*
X004170Y008447D01*
X004170Y008605D02*
X003440Y008605D01*
X003363Y008764D02*
X004170Y008764D01*
X004170Y008922D02*
X003272Y008922D01*
X003119Y009081D02*
X004170Y009081D01*
X004170Y009239D02*
X002906Y009239D01*
X002489Y009398D02*
X004170Y009398D01*
X004170Y009556D02*
X001460Y009556D01*
X001460Y009398D02*
X002071Y009398D01*
X001654Y009239D02*
X001460Y009239D01*
X001460Y009715D02*
X003278Y009715D01*
X003119Y009873D02*
X001460Y009873D01*
X001460Y010032D02*
X002961Y010032D01*
X002802Y010190D02*
X001460Y010190D01*
X001460Y010349D02*
X002644Y010349D01*
X002485Y010507D02*
X001460Y010507D01*
X001460Y010666D02*
X002327Y010666D01*
X002904Y010824D02*
X003200Y010824D01*
X003304Y010983D02*
X002898Y010983D01*
X002940Y011141D02*
X003462Y011141D01*
X003660Y011141D02*
X003700Y011141D01*
X003700Y010983D02*
X003660Y010983D01*
X003660Y010824D02*
X003700Y010824D01*
X003700Y010666D02*
X005670Y010666D01*
X005670Y010824D02*
X004946Y010824D01*
X004862Y010740D02*
X004680Y010740D01*
X004680Y011180D01*
X005120Y011180D01*
X005120Y011362D01*
X004862Y011620D01*
X004680Y011620D01*
X004680Y011180D01*
X004680Y011180D01*
X004680Y011180D01*
X005120Y011180D01*
X005120Y010998D01*
X004862Y010740D01*
X004680Y010740D02*
X004680Y011180D01*
X004680Y011180D01*
X004680Y011180D01*
X004240Y011180D01*
X004240Y011362D01*
X004498Y011620D01*
X004680Y011620D01*
X004680Y011180D01*
X004240Y011180D01*
X004240Y010998D01*
X004498Y010740D01*
X004680Y010740D01*
X004680Y010824D02*
X004680Y010824D01*
X004680Y010983D02*
X004680Y010983D01*
X004680Y011141D02*
X004680Y011141D01*
X004680Y011300D02*
X004680Y011300D01*
X004680Y011458D02*
X004680Y011458D01*
X004680Y011617D02*
X004680Y011617D01*
X004866Y011617D02*
X005670Y011617D01*
X005670Y011775D02*
X002678Y011775D01*
X002660Y011617D02*
X004494Y011617D01*
X004336Y011458D02*
X002861Y011458D01*
X002930Y011300D02*
X004240Y011300D01*
X004240Y011141D02*
X003898Y011141D01*
X004056Y010983D02*
X004255Y010983D01*
X004160Y010824D02*
X004414Y010824D01*
X004160Y010507D02*
X005670Y010507D01*
X005670Y010349D02*
X004027Y010349D01*
X003700Y010349D02*
X003660Y010349D01*
X003660Y010507D02*
X003700Y010507D01*
X003660Y010666D02*
X003062Y010666D01*
X003538Y010190D02*
X005670Y010190D01*
X005670Y010032D02*
X004669Y010032D01*
X004690Y009873D02*
X005670Y009873D01*
X005670Y009715D02*
X004690Y009715D01*
X004690Y009556D02*
X005670Y009556D01*
X005670Y009398D02*
X004690Y009398D01*
X004690Y009239D02*
X005753Y009239D01*
X005783Y009210D02*
X007243Y007750D01*
X007206Y007713D01*
X007130Y007529D01*
X007130Y007331D01*
X007206Y007147D01*
X007347Y007006D01*
X007531Y006930D01*
X008329Y006930D01*
X008513Y007006D01*
X008654Y007147D01*
X008730Y007331D01*
X008730Y007529D01*
X008654Y007713D01*
X008513Y007854D01*
X008329Y007930D01*
X007798Y007930D01*
X006190Y009538D01*
X006190Y013232D01*
X006150Y013327D01*
X005989Y013489D01*
X006000Y013517D01*
X006000Y013843D01*
X005875Y014144D01*
X005644Y014375D01*
X005343Y014500D01*
X005017Y014500D01*
X004716Y014375D01*
X004485Y014144D01*
X004360Y013843D01*
X004360Y013517D01*
X004485Y013216D01*
X004716Y012985D01*
X005017Y012860D01*
X005343Y012860D01*
X005644Y012985D01*
X005670Y013010D01*
X005670Y009378D01*
X005710Y009283D01*
X005783Y009210D01*
X005912Y009081D02*
X004690Y009081D01*
X004690Y008922D02*
X006070Y008922D01*
X006229Y008764D02*
X004690Y008764D01*
X004690Y008605D02*
X006387Y008605D01*
X006546Y008447D02*
X004690Y008447D01*
X004690Y008288D02*
X006704Y008288D01*
X006863Y008130D02*
X004690Y008130D01*
X004690Y007971D02*
X007021Y007971D01*
X007180Y007813D02*
X004690Y007813D01*
X004690Y007654D02*
X007182Y007654D01*
X007130Y007496D02*
X004690Y007496D01*
X004690Y007337D02*
X007130Y007337D01*
X007193Y007179D02*
X004690Y007179D01*
X004690Y007020D02*
X007333Y007020D01*
X007757Y007971D02*
X008948Y007971D01*
X008935Y007996D02*
X008969Y007928D01*
X009014Y007867D01*
X009067Y007814D01*
X009128Y007769D01*
X009196Y007735D01*
X009268Y007712D01*
X009342Y007700D01*
X009660Y007700D01*
X009660Y008160D01*
X009700Y008160D01*
X009700Y008200D01*
X009660Y008200D01*
X009660Y008660D01*
X009342Y008660D01*
X009268Y008648D01*
X009196Y008625D01*
X009128Y008591D01*
X009067Y008546D01*
X009014Y008493D01*
X008969Y008432D01*
X008935Y008364D01*
X008912Y008292D01*
X008900Y008218D01*
X008900Y008200D01*
X009660Y008200D01*
X009660Y008160D01*
X008900Y008160D01*
X008900Y008142D01*
X008912Y008068D01*
X008935Y007996D01*
X008902Y008130D02*
X007598Y008130D01*
X007440Y008288D02*
X008911Y008288D01*
X008980Y008447D02*
X008369Y008447D01*
X008329Y008430D02*
X008513Y008506D01*
X008654Y008647D01*
X008730Y008831D01*
X008730Y009029D01*
X008654Y009213D01*
X008513Y009354D01*
X008329Y009430D01*
X007531Y009430D01*
X007347Y009354D01*
X007206Y009213D01*
X007130Y009029D01*
X007130Y008831D01*
X007206Y008647D01*
X007347Y008506D01*
X007531Y008430D01*
X008329Y008430D01*
X008612Y008605D02*
X009157Y008605D01*
X008702Y008764D02*
X010946Y008764D01*
X010989Y008720D02*
X010720Y008989D01*
X010720Y009371D01*
X010989Y009640D01*
X011371Y009640D01*
X011640Y009371D01*
X011640Y008989D01*
X011371Y008720D01*
X010989Y008720D01*
X010998Y008620D02*
X010740Y008362D01*
X010740Y008180D01*
X011180Y008180D01*
X011180Y008180D01*
X011180Y008620D01*
X011362Y008620D01*
X011620Y008362D01*
X011620Y008180D01*
X011180Y008180D01*
X011180Y008180D01*
X011180Y008180D01*
X011180Y008620D01*
X010998Y008620D01*
X010983Y008605D02*
X010203Y008605D01*
X010232Y008591D02*
X010164Y008625D01*
X010092Y008648D01*
X010018Y008660D01*
X009700Y008660D01*
X009700Y008200D01*
X010460Y008200D01*
X010460Y008218D01*
X010448Y008292D01*
X010425Y008364D01*
X010391Y008432D01*
X010346Y008493D01*
X010293Y008546D01*
X010232Y008591D01*
X010380Y008447D02*
X010824Y008447D01*
X010740Y008288D02*
X010449Y008288D01*
X010460Y008160D02*
X009700Y008160D01*
X009700Y007700D01*
X010018Y007700D01*
X010092Y007712D01*
X010164Y007735D01*
X010232Y007769D01*
X010293Y007814D01*
X010346Y007867D01*
X010391Y007928D01*
X010425Y007996D01*
X010448Y008068D01*
X010460Y008142D01*
X010460Y008160D01*
X010458Y008130D02*
X010740Y008130D01*
X010740Y008180D02*
X010740Y007998D01*
X010998Y007740D01*
X011180Y007740D01*
X011362Y007740D01*
X011620Y007998D01*
X011620Y008180D01*
X011180Y008180D01*
X011180Y007740D01*
X011180Y008180D01*
X011180Y008180D01*
X010740Y008180D01*
X010767Y007971D02*
X010412Y007971D01*
X010291Y007813D02*
X010925Y007813D01*
X010981Y007660D02*
X010700Y007379D01*
X010700Y007200D01*
X011160Y007200D01*
X011160Y007660D01*
X010981Y007660D01*
X010975Y007654D02*
X008678Y007654D01*
X008730Y007496D02*
X010817Y007496D01*
X010700Y007337D02*
X008730Y007337D01*
X008667Y007179D02*
X009277Y007179D01*
X009281Y007180D02*
X009097Y007104D01*
X008956Y006963D01*
X008880Y006779D01*
X008880Y006581D01*
X008956Y006397D01*
X009097Y006256D01*
X009281Y006180D01*
X010079Y006180D01*
X010263Y006256D01*
X010404Y006397D01*
X010480Y006581D01*
X010480Y006779D01*
X010404Y006963D01*
X010263Y007104D01*
X010079Y007180D01*
X009281Y007180D01*
X009013Y007020D02*
X008527Y007020D01*
X008914Y006862D02*
X004690Y006862D01*
X004690Y006703D02*
X008880Y006703D01*
X008895Y006545D02*
X004690Y006545D01*
X004690Y006386D02*
X008967Y006386D01*
X009166Y006228D02*
X004690Y006228D01*
X004665Y006069D02*
X014159Y006069D01*
X014159Y005929D02*
X014159Y006310D01*
X014429Y006579D01*
X014810Y006579D01*
X015079Y006310D01*
X015079Y005929D01*
X014810Y005659D01*
X014429Y005659D01*
X014159Y005929D01*
X014178Y005911D02*
X004528Y005911D01*
X004370Y005752D02*
X014336Y005752D01*
X014159Y006228D02*
X013778Y006228D01*
X013771Y006220D02*
X014040Y006489D01*
X014040Y006871D01*
X013771Y007140D01*
X013389Y007140D01*
X013176Y006926D01*
X013170Y006941D01*
X013041Y007070D01*
X012871Y007140D01*
X012688Y007140D01*
X012519Y007070D01*
X012390Y006941D01*
X012320Y006771D01*
X012320Y006588D01*
X012390Y006419D01*
X012519Y006290D01*
X012688Y006220D01*
X012871Y006220D01*
X013041Y006290D01*
X013170Y006419D01*
X013176Y006434D01*
X013389Y006220D01*
X013771Y006220D01*
X013937Y006386D02*
X014235Y006386D01*
X014394Y006545D02*
X014040Y006545D01*
X014040Y006703D02*
X017270Y006703D01*
X017270Y006545D02*
X014845Y006545D01*
X015003Y006386D02*
X017270Y006386D01*
X017270Y006228D02*
X015079Y006228D01*
X015079Y006069D02*
X017270Y006069D01*
X017270Y005911D02*
X015061Y005911D01*
X014903Y005752D02*
X017270Y005752D01*
X017270Y005594D02*
X017216Y005594D01*
X017260Y004801D02*
X017270Y004801D01*
X016100Y004801D02*
X005680Y004801D01*
X005579Y004700D02*
X005400Y004700D01*
X005400Y005160D01*
X005400Y005200D01*
X005860Y005200D01*
X005860Y005379D01*
X005579Y005660D01*
X005400Y005660D01*
X005400Y005200D01*
X005360Y005200D01*
X005360Y005660D01*
X005181Y005660D01*
X004900Y005379D01*
X004900Y005200D01*
X005360Y005200D01*
X005360Y005160D01*
X005400Y005160D01*
X005860Y005160D01*
X005860Y004981D01*
X005579Y004700D01*
X005400Y004801D02*
X005360Y004801D01*
X005360Y004700D02*
X005181Y004700D01*
X004900Y004981D01*
X004900Y005160D01*
X005360Y005160D01*
X005360Y004700D01*
X005360Y004960D02*
X005400Y004960D01*
X005400Y005118D02*
X005360Y005118D01*
X005360Y005277D02*
X005400Y005277D01*
X005400Y005435D02*
X005360Y005435D01*
X005360Y005594D02*
X005400Y005594D01*
X005645Y005594D02*
X016144Y005594D01*
X015986Y005435D02*
X005804Y005435D01*
X005860Y005277D02*
X015920Y005277D01*
X015920Y005118D02*
X005860Y005118D01*
X005838Y004960D02*
X015972Y004960D01*
X016053Y004484D02*
X002835Y004484D01*
X002919Y004326D02*
X015964Y004326D01*
X015940Y004167D02*
X002940Y004167D01*
X002909Y004009D02*
X015972Y004009D01*
X016079Y003850D02*
X015170Y003850D01*
X014190Y003850D02*
X005170Y003850D01*
X005328Y003692D02*
X014032Y003692D01*
X013873Y003533D02*
X005421Y003533D01*
X005487Y003375D02*
X013860Y003375D01*
X013860Y003216D02*
X005500Y003216D01*
X005500Y003058D02*
X013860Y003058D01*
X013860Y002899D02*
X005451Y002899D01*
X005386Y002741D02*
X013960Y002741D01*
X014118Y002582D02*
X005242Y002582D01*
X004996Y002424D02*
X014277Y002424D01*
X015083Y002424D02*
X015179Y002424D01*
X015150Y002265D02*
X003710Y002265D01*
X003710Y002107D02*
X015150Y002107D01*
X015176Y001948D02*
X003684Y001948D01*
X003642Y001790D02*
X015218Y001790D01*
X015308Y001631D02*
X003552Y001631D01*
X003429Y001473D02*
X015431Y001473D01*
X015620Y001314D02*
X003240Y001314D01*
X003681Y002424D02*
X004364Y002424D01*
X004118Y002582D02*
X003637Y002582D01*
X003546Y002741D02*
X003974Y002741D01*
X003909Y002899D02*
X003418Y002899D01*
X003220Y003058D02*
X003860Y003058D01*
X004190Y003850D02*
X002809Y003850D01*
X003652Y004801D02*
X004137Y004801D01*
X004198Y004740D02*
X003940Y004998D01*
X003940Y005180D01*
X004380Y005180D01*
X004380Y004740D01*
X004198Y004740D01*
X004380Y004801D02*
X004380Y004801D01*
X004380Y004960D02*
X004380Y004960D01*
X004380Y005118D02*
X004380Y005118D01*
X004380Y005277D02*
X004380Y005277D01*
X004380Y005435D02*
X004380Y005435D01*
X004380Y005594D02*
X004380Y005594D01*
X004589Y005594D02*
X005115Y005594D01*
X004956Y005435D02*
X004747Y005435D01*
X004820Y005277D02*
X004900Y005277D01*
X004900Y005118D02*
X004820Y005118D01*
X004782Y004960D02*
X004922Y004960D01*
X005080Y004801D02*
X004623Y004801D01*
X003978Y004960D02*
X003810Y004960D01*
X003840Y005118D02*
X003940Y005118D01*
X003940Y005277D02*
X003894Y005277D01*
X001857Y007020D02*
X001460Y007020D01*
X001460Y007179D02*
X001555Y007179D01*
X001577Y010824D02*
X001460Y010824D01*
X001460Y010983D02*
X001462Y010983D01*
X001460Y011458D02*
X001499Y011458D01*
X001460Y011617D02*
X001700Y011617D01*
X001682Y011775D02*
X001460Y011775D01*
X001460Y011934D02*
X001510Y011934D01*
X001500Y012409D02*
X001460Y012409D01*
X001460Y012568D02*
X001651Y012568D01*
X001460Y012726D02*
X005670Y012726D01*
X005670Y012568D02*
X002709Y012568D01*
X002860Y012409D02*
X005670Y012409D01*
X005670Y012251D02*
X002915Y012251D01*
X002912Y012092D02*
X005670Y012092D01*
X005670Y011934D02*
X002850Y011934D01*
X002190Y011934D02*
X002170Y011934D01*
X002170Y012092D02*
X002190Y012092D01*
X002190Y012251D02*
X002170Y012251D01*
X002170Y012409D02*
X002190Y012409D01*
X002190Y012568D02*
X002170Y012568D01*
X002401Y013213D02*
X002295Y013250D01*
X002193Y013299D01*
X002098Y013359D01*
X002009Y013429D01*
X001929Y013509D01*
X001859Y013598D01*
X001799Y013693D01*
X001750Y013795D01*
X001713Y013901D01*
X001688Y014011D01*
X001678Y014100D01*
X002600Y014100D01*
X002760Y014100D01*
X002760Y014260D01*
X003682Y014260D01*
X003672Y014349D01*
X003647Y014459D01*
X003610Y014565D01*
X003561Y014667D01*
X003501Y014762D01*
X003431Y014851D01*
X003351Y014931D01*
X003262Y015001D01*
X003167Y015061D01*
X003065Y015110D01*
X002959Y015147D01*
X002849Y015172D01*
X002760Y015182D01*
X002760Y014260D01*
X002600Y014260D01*
X002600Y015182D01*
X002511Y015172D01*
X002401Y015147D01*
X002295Y015110D01*
X002193Y015061D01*
X002098Y015001D01*
X002009Y014931D01*
X001929Y014851D01*
X001859Y014762D01*
X001799Y014667D01*
X001750Y014565D01*
X001713Y014459D01*
X001688Y014349D01*
X001678Y014260D01*
X002600Y014260D01*
X002600Y014100D01*
X002600Y013178D01*
X002511Y013188D01*
X002401Y013213D01*
X002451Y013202D02*
X001460Y013202D01*
X001460Y013360D02*
X002096Y013360D01*
X001922Y013519D02*
X001460Y013519D01*
X001460Y013677D02*
X001809Y013677D01*
X001736Y013836D02*
X001460Y013836D01*
X001460Y013994D02*
X001692Y013994D01*
X001460Y014153D02*
X002600Y014153D01*
X002600Y014311D02*
X002760Y014311D01*
X002760Y014153D02*
X004493Y014153D01*
X004423Y013994D02*
X003668Y013994D01*
X003672Y014011D02*
X003682Y014100D01*
X002760Y014100D01*
X002760Y013178D01*
X002849Y013188D01*
X002959Y013213D01*
X003065Y013250D01*
X003167Y013299D01*
X003262Y013359D01*
X003351Y013429D01*
X003431Y013509D01*
X003501Y013598D01*
X003561Y013693D01*
X003610Y013795D01*
X003647Y013901D01*
X003672Y014011D01*
X003624Y013836D02*
X004360Y013836D01*
X004360Y013677D02*
X003551Y013677D01*
X003438Y013519D02*
X004360Y013519D01*
X004425Y013360D02*
X003264Y013360D01*
X002909Y013202D02*
X004499Y013202D01*
X004657Y013043D02*
X001460Y013043D01*
X001460Y012885D02*
X004958Y012885D01*
X005402Y012885D02*
X005670Y012885D01*
X006190Y012885D02*
X013816Y012885D01*
X013840Y012860D02*
X014520Y012860D01*
X015000Y013340D01*
X015000Y014020D01*
X014520Y014500D01*
X013840Y014500D01*
X013360Y014020D01*
X013360Y013340D01*
X013840Y012860D01*
X013657Y013043D02*
X006190Y013043D01*
X006190Y013202D02*
X013499Y013202D01*
X013360Y013360D02*
X006118Y013360D01*
X006000Y013519D02*
X013360Y013519D01*
X013360Y013677D02*
X006000Y013677D01*
X006000Y013836D02*
X013360Y013836D01*
X013360Y013994D02*
X005937Y013994D01*
X005867Y014153D02*
X013493Y014153D01*
X013651Y014311D02*
X005709Y014311D01*
X005417Y014470D02*
X013810Y014470D01*
X014550Y014470D02*
X015217Y014470D01*
X015213Y014459D02*
X015188Y014349D01*
X015178Y014260D01*
X016100Y014260D01*
X016100Y015182D01*
X016011Y015172D01*
X015901Y015147D01*
X015795Y015110D01*
X015693Y015061D01*
X015598Y015001D01*
X015509Y014931D01*
X015429Y014851D01*
X015359Y014762D01*
X015299Y014667D01*
X015250Y014565D01*
X015213Y014459D01*
X015183Y014311D02*
X014709Y014311D01*
X014867Y014153D02*
X016100Y014153D01*
X016100Y014100D02*
X016100Y014260D01*
X016260Y014260D01*
X017182Y014260D01*
X017172Y014349D01*
X017147Y014459D01*
X017110Y014565D01*
X017061Y014667D01*
X017001Y014762D01*
X016931Y014851D01*
X016851Y014931D01*
X016762Y015001D01*
X016667Y015061D01*
X016565Y015110D01*
X016459Y015147D01*
X016349Y015172D01*
X016260Y015182D01*
X016260Y014260D01*
X016260Y014100D01*
X017182Y014100D01*
X017172Y014011D01*
X017147Y013901D01*
X017110Y013795D01*
X017061Y013693D01*
X017001Y013598D01*
X016931Y013509D01*
X016851Y013429D01*
X016762Y013359D01*
X016667Y013299D01*
X016565Y013250D01*
X016459Y013213D01*
X016349Y013188D01*
X016260Y013178D01*
X016260Y014100D01*
X016100Y014100D01*
X016100Y013178D01*
X016011Y013188D01*
X015901Y013213D01*
X015795Y013250D01*
X015693Y013299D01*
X015598Y013359D01*
X015509Y013429D01*
X015429Y013509D01*
X015359Y013598D01*
X015299Y013693D01*
X015250Y013795D01*
X015213Y013901D01*
X015188Y014011D01*
X015178Y014100D01*
X016100Y014100D01*
X016100Y013994D02*
X016260Y013994D01*
X016260Y013836D02*
X016100Y013836D01*
X016100Y013677D02*
X016260Y013677D01*
X016260Y013519D02*
X016100Y013519D01*
X016100Y013360D02*
X016260Y013360D01*
X016260Y013202D02*
X016100Y013202D01*
X015951Y013202D02*
X014861Y013202D01*
X015000Y013360D02*
X015596Y013360D01*
X015422Y013519D02*
X015000Y013519D01*
X015000Y013677D02*
X015309Y013677D01*
X015236Y013836D02*
X015000Y013836D01*
X015000Y013994D02*
X015192Y013994D01*
X015280Y014628D02*
X003580Y014628D01*
X003643Y014470D02*
X004943Y014470D01*
X004651Y014311D02*
X003677Y014311D01*
X003482Y014787D02*
X015378Y014787D01*
X015527Y014945D02*
X003333Y014945D01*
X003079Y015104D02*
X015781Y015104D01*
X016100Y015104D02*
X016260Y015104D01*
X016260Y014945D02*
X016100Y014945D01*
X016100Y014787D02*
X016260Y014787D01*
X016260Y014628D02*
X016100Y014628D01*
X016100Y014470D02*
X016260Y014470D01*
X016260Y014311D02*
X016100Y014311D01*
X016260Y014153D02*
X017270Y014153D01*
X017270Y014311D02*
X017177Y014311D01*
X017143Y014470D02*
X017270Y014470D01*
X017270Y014628D02*
X017080Y014628D01*
X016982Y014787D02*
X017270Y014787D01*
X017270Y014945D02*
X016833Y014945D01*
X016579Y015104D02*
X017270Y015104D01*
X017270Y015262D02*
X001460Y015262D01*
X001460Y015104D02*
X002281Y015104D01*
X002027Y014945D02*
X001460Y014945D01*
X001460Y014787D02*
X001878Y014787D01*
X001780Y014628D02*
X001460Y014628D01*
X001460Y014470D02*
X001717Y014470D01*
X001683Y014311D02*
X001460Y014311D01*
X002600Y014470D02*
X002760Y014470D01*
X002760Y014628D02*
X002600Y014628D01*
X002600Y014787D02*
X002760Y014787D01*
X002760Y014945D02*
X002600Y014945D01*
X002600Y015104D02*
X002760Y015104D01*
X002760Y013994D02*
X002600Y013994D01*
X002600Y013836D02*
X002760Y013836D01*
X002760Y013677D02*
X002600Y013677D01*
X002600Y013519D02*
X002760Y013519D01*
X002760Y013360D02*
X002600Y013360D01*
X002600Y013202D02*
X002760Y013202D01*
X002190Y011775D02*
X002170Y011775D01*
X005024Y011458D02*
X005670Y011458D01*
X005670Y011300D02*
X005120Y011300D01*
X005120Y011141D02*
X005670Y011141D01*
X005670Y010983D02*
X005105Y010983D01*
X006190Y010983D02*
X007227Y010983D01*
X007220Y010989D02*
X007489Y010720D01*
X007871Y010720D01*
X008140Y010989D01*
X008140Y011371D01*
X007871Y011640D01*
X007489Y011640D01*
X007220Y011371D01*
X007220Y010989D01*
X007220Y011141D02*
X006190Y011141D01*
X006190Y011300D02*
X007220Y011300D01*
X007307Y011458D02*
X006190Y011458D01*
X006190Y011617D02*
X007466Y011617D01*
X007894Y011617D02*
X008466Y011617D01*
X008489Y011640D02*
X008220Y011371D01*
X008220Y010989D01*
X008489Y010720D01*
X008871Y010720D01*
X009140Y010989D01*
X009140Y011371D01*
X008871Y011640D01*
X008489Y011640D01*
X008307Y011458D02*
X008053Y011458D01*
X008140Y011300D02*
X008220Y011300D01*
X008220Y011141D02*
X008140Y011141D01*
X008133Y010983D02*
X008227Y010983D01*
X008385Y010824D02*
X007975Y010824D01*
X007385Y010824D02*
X006190Y010824D01*
X006190Y010666D02*
X017270Y010666D01*
X017270Y010507D02*
X006190Y010507D01*
X006190Y010349D02*
X017270Y010349D01*
X017270Y010190D02*
X017021Y010190D01*
X017140Y010071D02*
X016871Y010340D01*
X016489Y010340D01*
X016220Y010071D01*
X016220Y009689D01*
X016489Y009420D01*
X016871Y009420D01*
X017140Y009689D01*
X017140Y010071D01*
X017140Y010032D02*
X017270Y010032D01*
X017270Y009873D02*
X017140Y009873D01*
X017140Y009715D02*
X017270Y009715D01*
X017270Y009556D02*
X017007Y009556D01*
X017270Y009398D02*
X011613Y009398D01*
X011640Y009239D02*
X017270Y009239D01*
X017270Y009081D02*
X014987Y009081D01*
X014887Y009180D02*
X014473Y009180D01*
X014180Y008887D01*
X014180Y008473D01*
X014473Y008180D01*
X014887Y008180D01*
X015180Y008473D01*
X015180Y008887D01*
X014887Y009180D01*
X015145Y008922D02*
X017270Y008922D01*
X017270Y008764D02*
X015180Y008764D01*
X015180Y008605D02*
X016483Y008605D01*
X016430Y008552D02*
X016558Y008681D01*
X016923Y008681D01*
X017052Y008552D01*
X016741Y008241D01*
X016741Y008241D01*
X017052Y008552D01*
X017181Y008423D01*
X017181Y008058D01*
X017052Y007930D01*
X016741Y008241D01*
X016741Y008241D01*
X016430Y008552D01*
X016301Y008423D01*
X016301Y008058D01*
X016430Y007930D01*
X016558Y007801D01*
X016923Y007801D01*
X017052Y007930D01*
X016741Y008241D01*
X016741Y008241D01*
X016430Y008552D01*
X016535Y008447D02*
X016535Y008447D01*
X016324Y008447D02*
X015154Y008447D01*
X014995Y008288D02*
X016301Y008288D01*
X016301Y008130D02*
X011620Y008130D01*
X011620Y008288D02*
X012421Y008288D01*
X012489Y008220D02*
X012220Y008489D01*
X012220Y008871D01*
X012489Y009140D01*
X012871Y009140D01*
X013140Y008871D01*
X013140Y008489D01*
X012871Y008220D01*
X012489Y008220D01*
X012263Y008447D02*
X011536Y008447D01*
X011377Y008605D02*
X012220Y008605D01*
X012220Y008764D02*
X011414Y008764D01*
X011573Y008922D02*
X012271Y008922D01*
X012430Y009081D02*
X011640Y009081D01*
X011455Y009556D02*
X013353Y009556D01*
X013220Y009689D02*
X013489Y009420D01*
X013871Y009420D01*
X014140Y009689D01*
X014140Y010071D01*
X013871Y010340D01*
X013489Y010340D01*
X013220Y010071D01*
X013220Y009689D01*
X013220Y009715D02*
X010480Y009715D01*
X010480Y009779D02*
X010404Y009963D01*
X010263Y010104D01*
X010079Y010180D01*
X009281Y010180D01*
X009097Y010104D01*
X008956Y009963D01*
X008880Y009779D01*
X008880Y009581D01*
X008956Y009397D01*
X009097Y009256D01*
X009281Y009180D01*
X010079Y009180D01*
X010263Y009256D01*
X010404Y009397D01*
X010480Y009581D01*
X010480Y009779D01*
X010441Y009873D02*
X013220Y009873D01*
X013220Y010032D02*
X010336Y010032D01*
X010470Y009556D02*
X010905Y009556D01*
X010747Y009398D02*
X010404Y009398D01*
X010222Y009239D02*
X010720Y009239D01*
X010720Y009081D02*
X008709Y009081D01*
X008730Y008922D02*
X010787Y008922D01*
X011180Y008605D02*
X011180Y008605D01*
X011180Y008447D02*
X011180Y008447D01*
X011180Y008288D02*
X011180Y008288D01*
X011180Y008130D02*
X011180Y008130D01*
X011180Y007971D02*
X011180Y007971D01*
X011180Y007813D02*
X011180Y007813D01*
X011200Y007660D02*
X011379Y007660D01*
X011660Y007379D01*
X011660Y007200D01*
X011200Y007200D01*
X011200Y007160D01*
X011660Y007160D01*
X011660Y006981D01*
X011379Y006700D01*
X011200Y006700D01*
X011200Y007160D01*
X011160Y007160D01*
X011160Y006700D01*
X010981Y006700D01*
X010700Y006981D01*
X010700Y007160D01*
X011160Y007160D01*
X011160Y007200D01*
X011200Y007200D01*
X011200Y007660D01*
X011200Y007654D02*
X011160Y007654D01*
X011160Y007496D02*
X011200Y007496D01*
X011200Y007337D02*
X011160Y007337D01*
X011160Y007179D02*
X010083Y007179D01*
X010347Y007020D02*
X010700Y007020D01*
X010820Y006862D02*
X010446Y006862D01*
X010480Y006703D02*
X010978Y006703D01*
X011160Y006703D02*
X011200Y006703D01*
X011200Y006862D02*
X011160Y006862D01*
X011160Y007020D02*
X011200Y007020D01*
X011200Y007179D02*
X017270Y007179D01*
X017270Y007337D02*
X011660Y007337D01*
X011543Y007496D02*
X017270Y007496D01*
X017270Y007654D02*
X011385Y007654D01*
X011435Y007813D02*
X016547Y007813D01*
X016430Y007930D02*
X016741Y008241D01*
X016741Y008241D01*
X016430Y007930D01*
X016471Y007971D02*
X016471Y007971D01*
X016388Y007971D02*
X011593Y007971D01*
X011660Y007020D02*
X012469Y007020D01*
X012357Y006862D02*
X011540Y006862D01*
X011382Y006703D02*
X012320Y006703D01*
X012338Y006545D02*
X010465Y006545D01*
X010393Y006386D02*
X012423Y006386D01*
X012670Y006228D02*
X010194Y006228D01*
X009700Y007813D02*
X009660Y007813D01*
X009660Y007971D02*
X009700Y007971D01*
X009700Y008130D02*
X009660Y008130D01*
X009660Y008288D02*
X009700Y008288D01*
X009700Y008447D02*
X009660Y008447D01*
X009660Y008605D02*
X009700Y008605D01*
X009138Y009239D02*
X008628Y009239D01*
X008408Y009398D02*
X008956Y009398D01*
X008890Y009556D02*
X006190Y009556D01*
X006190Y009715D02*
X008880Y009715D01*
X008919Y009873D02*
X006190Y009873D01*
X006190Y010032D02*
X009024Y010032D01*
X008975Y010824D02*
X011385Y010824D01*
X011489Y010720D02*
X011220Y010989D01*
X011220Y011371D01*
X011489Y011640D01*
X011871Y011640D01*
X012140Y011371D01*
X012140Y010989D01*
X011871Y010720D01*
X011489Y010720D01*
X011227Y010983D02*
X009133Y010983D01*
X009140Y011141D02*
X011220Y011141D01*
X011220Y011300D02*
X009140Y011300D01*
X009053Y011458D02*
X011307Y011458D01*
X011466Y011617D02*
X008894Y011617D01*
X007452Y009398D02*
X006330Y009398D01*
X006489Y009239D02*
X007232Y009239D01*
X007151Y009081D02*
X006647Y009081D01*
X006806Y008922D02*
X007130Y008922D01*
X007158Y008764D02*
X006964Y008764D01*
X007123Y008605D02*
X007248Y008605D01*
X007281Y008447D02*
X007491Y008447D01*
X008555Y007813D02*
X009069Y007813D01*
X006190Y010190D02*
X013339Y010190D01*
X013387Y010680D02*
X012973Y010680D01*
X012680Y010973D01*
X012680Y011387D01*
X012973Y011680D01*
X013387Y011680D01*
X013680Y011387D01*
X013680Y010973D01*
X013387Y010680D01*
X013531Y010824D02*
X013885Y010824D01*
X013989Y010720D02*
X013720Y010989D01*
X013720Y011371D01*
X013989Y011640D01*
X014371Y011640D01*
X014640Y011371D01*
X014640Y010989D01*
X014371Y010720D01*
X013989Y010720D01*
X013727Y010983D02*
X013680Y010983D01*
X013680Y011141D02*
X013720Y011141D01*
X013720Y011300D02*
X013680Y011300D01*
X013609Y011458D02*
X013807Y011458D01*
X013966Y011617D02*
X013451Y011617D01*
X012909Y011617D02*
X011894Y011617D01*
X012053Y011458D02*
X012751Y011458D01*
X012680Y011300D02*
X012140Y011300D01*
X012140Y011141D02*
X012680Y011141D01*
X012680Y010983D02*
X012133Y010983D01*
X011975Y010824D02*
X012829Y010824D01*
X014021Y010190D02*
X016339Y010190D01*
X016220Y010032D02*
X014140Y010032D01*
X014140Y009873D02*
X016220Y009873D01*
X016220Y009715D02*
X014140Y009715D01*
X014007Y009556D02*
X016353Y009556D01*
X016999Y008605D02*
X017270Y008605D01*
X017270Y008447D02*
X017157Y008447D01*
X017181Y008288D02*
X017270Y008288D01*
X017270Y008130D02*
X017181Y008130D01*
X017093Y007971D02*
X017270Y007971D01*
X017270Y007813D02*
X016935Y007813D01*
X017010Y007971D02*
X017010Y007971D01*
X016852Y008130D02*
X016852Y008130D01*
X016788Y008288D02*
X016788Y008288D01*
X016693Y008288D02*
X016693Y008288D01*
X016630Y008130D02*
X016630Y008130D01*
X016947Y008447D02*
X016947Y008447D01*
X017270Y007020D02*
X013891Y007020D01*
X014040Y006862D02*
X017270Y006862D01*
X014365Y008288D02*
X013939Y008288D01*
X013871Y008220D02*
X014140Y008489D01*
X014140Y008871D01*
X013871Y009140D01*
X013489Y009140D01*
X013220Y008871D01*
X013220Y008489D01*
X013489Y008220D01*
X013871Y008220D01*
X014097Y008447D02*
X014206Y008447D01*
X014180Y008605D02*
X014140Y008605D01*
X014140Y008764D02*
X014180Y008764D01*
X014215Y008922D02*
X014089Y008922D01*
X013930Y009081D02*
X014373Y009081D01*
X013430Y009081D02*
X012930Y009081D01*
X013089Y008922D02*
X013271Y008922D01*
X013220Y008764D02*
X013140Y008764D01*
X013140Y008605D02*
X013220Y008605D01*
X013263Y008447D02*
X013097Y008447D01*
X012939Y008288D02*
X013421Y008288D01*
X013269Y007020D02*
X013091Y007020D01*
X013137Y006386D02*
X013223Y006386D01*
X013382Y006228D02*
X012890Y006228D01*
X014989Y010720D02*
X015371Y010720D01*
X015640Y010989D01*
X015640Y011371D01*
X015371Y011640D01*
X014989Y011640D01*
X014720Y011371D01*
X014720Y010989D01*
X014989Y010720D01*
X014885Y010824D02*
X014475Y010824D01*
X014633Y010983D02*
X014727Y010983D01*
X014720Y011141D02*
X014640Y011141D01*
X014640Y011300D02*
X014720Y011300D01*
X014807Y011458D02*
X014553Y011458D01*
X014394Y011617D02*
X014966Y011617D01*
X015394Y011617D02*
X016200Y011617D01*
X016182Y011775D02*
X006190Y011775D01*
X006190Y011934D02*
X016010Y011934D01*
X015948Y012092D02*
X006190Y012092D01*
X006190Y012251D02*
X015945Y012251D01*
X016000Y012409D02*
X006190Y012409D01*
X006190Y012568D02*
X016151Y012568D01*
X016670Y012568D02*
X016690Y012568D01*
X016690Y012409D02*
X016670Y012409D01*
X016670Y012251D02*
X016690Y012251D01*
X016690Y012092D02*
X016670Y012092D01*
X016670Y011934D02*
X016690Y011934D01*
X016690Y011775D02*
X016670Y011775D01*
X017178Y011775D02*
X017270Y011775D01*
X017270Y011617D02*
X017160Y011617D01*
X017209Y012568D02*
X017270Y012568D01*
X017270Y012726D02*
X006190Y012726D01*
X014544Y012885D02*
X017270Y012885D01*
X017270Y013043D02*
X014703Y013043D01*
X016409Y013202D02*
X017270Y013202D01*
X017270Y013360D02*
X016764Y013360D01*
X016938Y013519D02*
X017270Y013519D01*
X017270Y013677D02*
X017051Y013677D01*
X017124Y013836D02*
X017270Y013836D01*
X017270Y013994D02*
X017168Y013994D01*
X015999Y011458D02*
X015553Y011458D01*
X015640Y011300D02*
X015930Y011300D01*
X015920Y011141D02*
X015640Y011141D01*
X015633Y010983D02*
X015962Y010983D01*
X016077Y010824D02*
X015475Y010824D01*
X017270Y000997D02*
X001460Y000997D01*
M02*
